<?xml version="1.0" standalone="no"?>
<!DOCTYPE svg PUBLIC "-//W3C//DTD SVG 20010904//EN"
 "http://www.w3.org/TR/2001/REC-SVG-20010904/DTD/svg10.dtd">
<svg version="1.0" xmlns="http://www.w3.org/2000/svg"
 width="800.000000pt" height="800.000000pt" viewBox="0 0 800.000000 800.000000"
 preserveAspectRatio="xMidYMid meet">
<metadata>
Created by potrace 1.11, written by Peter Selinger 2001-2013
</metadata>
<g transform="translate(0.000000,800.000000) scale(0.100000,-0.100000)"
fill="#000000" stroke="none">
<path d="M3705 7989 c-151 -12 -276 -28 -425 -55 -243 -45 -540 -126 -540
-149 0 -17 22 -35 41 -35 10 0 30 -22 49 -52 17 -29 49 -80 70 -114 21 -33 39
-69 42 -80 2 -11 13 -20 26 -22 19 -3 22 1 22 27 0 17 5 31 11 31 6 0 35 -20
63 -45 59 -50 66 -52 130 -30 42 14 48 14 71 -1 14 -9 31 -14 39 -11 7 3 30
-5 49 -19 56 -37 80 -44 102 -28 10 8 34 14 53 14 18 0 40 7 49 15 14 14 17
14 35 -2 16 -14 39 -18 117 -19 53 -1 106 -5 118 -9 17 -5 28 -1 46 19 13 14
31 26 39 26 8 0 33 9 56 20 22 11 45 20 50 20 5 0 15 7 22 15 16 20 55 19 87
-2 24 -16 26 -16 40 3 7 10 16 29 19 40 4 14 20 27 47 37 74 27 84 28 97 12 7
-8 21 -15 31 -15 21 0 102 41 125 64 16 17 84 22 100 7 13 -12 60 -22 68 -14
4 4 26 9 49 10 23 2 52 8 64 15 17 8 32 9 60 0 40 -12 53 -9 53 15 0 9 17 36
38 62 20 25 45 65 54 89 l16 43 -25 10 c-41 15 -307 67 -433 83 -262 35 -583
45 -825 25z"/>
<path d="M5012 7847 c2 -14 11 -22 23 -23 11 -1 25 -2 30 -4 6 -1 20 -1 33 0
14 1 22 -4 22 -14 0 -8 5 -27 12 -41 l11 -25 29 27 c26 25 37 53 20 53 -4 0
-47 11 -95 24 l-88 24 3 -21z"/>
<path d="M6093 7220 c-13 -5 -23 -13 -23 -19 0 -5 -10 -11 -22 -15 -17 -4 -20
-8 -11 -17 13 -13 38 -2 72 35 26 27 21 31 -16 16z"/>
<path d="M1550 7159 c-472 -361 -883 -866 -1147 -1409 -371 -763 -490 -1637
-337 -2470 35 -189 85 -385 126 -493 l11 -29 14 32 c7 18 13 46 13 63 0 17 7
39 17 49 9 11 11 18 5 18 -15 0 -16 36 -2 45 15 9 12 45 -6 62 -13 13 -15 27
-9 67 5 28 9 74 10 102 1 27 7 60 14 72 11 20 8 26 -11 23 -12 -2 -10 9 12 68
12 29 18 61 15 70 -3 11 5 27 21 41 32 31 68 89 60 97 -3 4 -23 1 -43 -5 -20
-6 -39 -10 -41 -7 -2 2 8 20 23 39 25 33 26 36 9 42 -62 19 -64 32 -16 87 53
61 67 137 26 137 -8 0 -14 4 -14 9 0 18 55 89 115 147 46 45 64 70 68 95 3 19
8 44 12 57 7 20 4 22 -26 22 l-33 0 33 34 c33 34 33 34 12 45 l-21 12 21 28
21 29 -23 40 c-22 38 -23 41 -6 59 20 23 22 44 5 61 -8 8 -3 18 20 41 32 29
40 55 22 66 -6 4 4 24 24 48 18 23 36 54 40 69 3 14 18 40 32 57 14 17 21 31
15 31 -19 0 -12 36 10 56 12 10 28 32 36 49 9 16 38 51 65 77 41 38 49 51 44
71 -4 18 2 31 25 53 16 15 41 48 55 71 l25 43 -20 21 c-16 17 -18 26 -10 41 6
11 8 25 6 32 -3 8 12 30 34 51 39 37 40 38 19 52 -16 12 -20 21 -15 43 4 20 2
31 -10 37 -13 8 -6 15 36 38 42 22 49 30 38 39 -8 6 -14 20 -14 31 0 14 -8 21
-27 23 -23 3 -26 8 -26 34 1 16 7 32 15 35 7 3 13 17 13 32 0 15 7 36 15 48 9
13 11 23 5 25 -14 4 55 85 80 93 20 6 36 40 31 65 -2 8 -12 21 -23 28 -18 13
-18 15 19 48 21 18 42 33 46 34 5 0 19 8 32 19 16 12 21 21 14 28 -7 7 -5 15
5 26 15 14 14 17 -10 36 -20 16 -23 24 -15 39 6 11 24 25 41 32 21 9 30 18 27
29 -12 42 -11 46 11 49 18 3 21 8 16 29 -6 21 0 32 30 59 21 19 36 40 33 47
-5 16 -71 21 -97 7 -30 -16 -38 -4 -14 21 24 24 115 82 162 104 39 19 72 50
72 69 0 8 4 17 9 20 5 4 5 21 -2 42 -9 31 -8 38 5 48 11 8 14 17 7 27 -15 23
-11 29 23 29 37 0 98 43 98 69 0 10 -9 30 -20 44 l-20 26 34 26 c33 25 40 42
53 127 3 21 11 42 19 49 15 12 19 29 7 29 -5 -1 -37 -23 -73 -51z m-420 -724
c-7 -8 -17 -15 -22 -15 -11 0 14 29 26 30 5 0 3 -7 -4 -15z"/>
<path d="M6019 7096 c-2 -2 -19 -7 -38 -9 -34 -6 -80 -41 -69 -52 3 -4 15 4
27 16 11 12 24 19 28 15 4 -4 1 -11 -7 -16 -8 -6 -10 -10 -4 -10 6 0 27 13 45
30 19 16 31 30 28 30 -3 0 -8 -2 -10 -4z"/>
<path d="M6150 7071 c0 -5 9 -7 20 -4 11 3 20 7 20 9 0 2 -9 4 -20 4 -11 0
-20 -4 -20 -9z"/>
<path d="M6050 7049 c0 -5 5 -7 10 -4 6 3 10 8 10 11 0 2 -4 4 -10 4 -5 0 -10
-5 -10 -11z"/>
<path d="M6115 7040 c-3 -5 3 -10 14 -10 12 0 21 5 21 10 0 6 -6 10 -14 10 -8
0 -18 -4 -21 -10z"/>
<path d="M6010 7030 c-9 -6 -10 -10 -3 -10 6 0 15 5 18 10 8 12 4 12 -15 0z"/>
<path d="M6633 6973 c-12 -2 -25 -13 -28 -24 -4 -10 -10 -19 -15 -19 -5 0 -20
-11 -34 -25 -14 -14 -31 -25 -38 -26 -7 0 -2 -5 12 -11 14 -6 29 -10 33 -9 5
1 6 -12 2 -29 -5 -24 -4 -29 9 -24 11 4 17 -2 22 -21 5 -19 12 -25 25 -22 10
3 16 0 13 -7 -2 -6 6 -16 18 -21 29 -13 38 -46 10 -38 -31 8 -35 -13 -6 -36
18 -14 31 -18 47 -12 60 22 98 34 162 51 l70 18 -134 131 c-73 72 -136 130
-140 130 -3 -1 -16 -4 -28 -6z m-68 -93 c-3 -5 -12 -10 -18 -10 -7 0 -6 4 3
10 19 12 23 12 15 0z"/>
<path d="M6325 6790 c-7 -12 22 -12 50 0 17 7 15 9 -12 9 -17 1 -35 -3 -38 -9z"/>
<path d="M6864 6676 c-28 -7 -64 -22 -79 -34 -15 -12 -34 -22 -41 -22 -21 0
-39 -41 -23 -52 34 -22 49 -28 61 -23 8 3 32 -2 54 -12 21 -9 41 -17 44 -18 3
0 11 -4 18 -8 7 -5 37 -11 67 -14 71 -7 61 -25 -11 -19 -30 3 -54 1 -54 -4 0
-10 63 -40 85 -40 10 0 34 -4 54 -10 20 -5 57 -12 83 -15 34 -4 46 -10 42 -20
-3 -8 4 -16 17 -20 17 -6 19 -9 8 -16 -20 -13 -89 -7 -89 7 0 12 -47 7 -56 -7
-2 -4 -16 -4 -30 1 -14 6 -39 6 -62 1 -38 -9 -38 -10 33 -16 51 -5 51 -5 31
-20 -11 -8 -28 -15 -39 -15 -10 0 -15 -4 -12 -10 3 -5 -3 -10 -15 -10 -12 0
-18 -4 -15 -10 3 -5 22 -10 41 -10 34 0 84 -24 84 -41 0 -5 -12 -3 -27 3 -16
6 -75 12 -133 13 -86 1 -107 -1 -117 -14 -9 -12 -9 -18 0 -23 8 -5 6 -8 -5 -8
-21 0 -25 -36 -5 -44 6 -2 -5 -3 -26 0 -28 4 -39 1 -43 -10 -3 -9 -10 -14 -14
-11 -8 5 -105 8 -155 5 -30 -2 -30 -2 -5 -10 14 -5 55 -11 92 -15 49 -5 68
-11 73 -23 3 -9 1 -18 -4 -20 -6 -2 -9 -8 -5 -13 3 -5 37 -9 75 -9 44 0 68 -4
64 -10 -3 -5 -27 -10 -53 -10 l-47 0 28 -15 c18 -9 45 -13 75 -10 26 3 40 2
32 -2 -8 -3 -20 -13 -26 -21 -6 -8 -16 -12 -22 -8 -7 4 -12 3 -12 -3 0 -5 6
-12 13 -14 10 -4 10 -6 0 -6 -7 -1 -13 -8 -13 -16 0 -9 6 -12 15 -9 11 5 15
-1 15 -19 0 -30 -10 -39 -30 -26 -11 6 -12 9 -2 9 7 0 11 4 7 10 -4 6 -15 6
-31 0 -14 -6 -38 -10 -53 -10 -25 0 -27 -3 -23 -29 3 -24 10 -30 40 -35 54 -9
74 -7 67 4 -3 6 -21 10 -38 10 -21 0 -36 7 -45 20 -7 12 -8 20 -2 20 5 0 10
-4 10 -10 0 -5 13 -7 29 -4 16 4 32 1 35 -5 4 -6 11 -9 16 -6 15 9 70 -24 70
-43 0 -14 -10 -17 -68 -17 -72 1 -128 -9 -102 -17 8 -3 38 -12 66 -21 29 -10
68 -17 87 -17 20 0 39 -5 42 -10 3 -6 26 -15 50 -21 25 -6 42 -15 40 -20 -3
-4 -16 -4 -29 1 -13 5 -45 8 -70 7 -39 -2 -46 -5 -42 -19 4 -19 -9 -25 -19 -8
-3 6 -27 7 -58 3 -29 -4 -80 -7 -114 -6 -35 0 -63 -2 -63 -6 0 -14 25 -31 45
-31 12 0 27 -6 33 -12 14 -14 72 -20 72 -8 0 5 17 6 39 3 26 -4 46 0 65 12 26
17 26 17 24 -5 -2 -16 3 -24 17 -26 10 -1 27 -13 36 -25 13 -17 29 -23 75 -26
43 -3 55 -2 44 6 -13 9 -13 11 2 11 9 0 20 -5 23 -11 4 -6 35 -9 76 -8 39 1
74 -3 82 -9 7 -6 40 -14 73 -18 32 -4 67 -12 76 -19 14 -9 4 -14 -60 -25 -42
-8 -83 -13 -90 -11 -10 1 -8 -5 5 -23 15 -21 24 -24 49 -20 20 4 35 1 39 -7 6
-9 1 -10 -17 -6 -17 5 -28 2 -31 -6 -7 -19 8 -41 22 -33 6 4 11 3 11 -2 0 -6
-7 -13 -16 -16 -22 -8 -24 -8 -21 6 1 6 -6 14 -15 16 -12 2 -16 -1 -12 -11 7
-21 -40 -28 -66 -10 -11 8 -18 18 -15 23 9 14 -13 22 -34 11 -15 -9 -20 -7
-24 9 -6 23 -37 17 -37 -6 0 -8 -6 -14 -12 -15 -7 -1 -2 -5 12 -9 38 -13 -219
-15 -295 -3 l-40 6 30 13 c17 7 26 14 20 14 -56 7 -75 19 -75 48 0 10 4 9 16
-2 16 -16 69 -22 77 -8 2 4 2 2 1 -5 -3 -14 21 -26 56 -28 14 0 35 -4 48 -9
14 -5 22 -3 22 4 0 6 -13 15 -28 21 -26 9 -41 39 -20 39 5 0 6 5 3 10 -5 8
-11 7 -21 -1 -10 -8 -18 -9 -27 0 -8 6 -16 9 -19 6 -8 -8 -73 22 -70 32 1 4
-6 8 -16 9 -50 3 -92 16 -86 26 4 7 3 8 -5 4 -20 -13 -53 4 -48 25 3 12 0 19
-9 19 -8 0 -14 -5 -14 -12 0 -6 -6 -3 -14 8 -8 10 -12 21 -10 24 3 2 10 -2 15
-10 9 -13 10 -13 7 0 -3 8 -19 20 -38 26 -20 7 -28 14 -21 18 19 12 12 28 -10
21 -18 -6 -60 7 -111 35 -26 15 -35 12 -41 -11 -5 -17 -3 -18 10 -7 13 10 17
10 20 1 3 -7 12 -13 21 -13 14 0 15 -2 2 -10 -17 -10 -16 -12 28 -34 17 -9 32
-21 32 -26 0 -14 -6 -12 -25 6 -9 9 -18 14 -21 11 -11 -11 68 -77 92 -77 13 0
24 -4 24 -10 0 -5 7 -10 15 -10 8 0 15 -5 15 -11 0 -6 -7 -8 -15 -5 -8 3 -22
9 -31 12 -12 5 -15 2 -12 -12 2 -11 13 -20 26 -22 12 -2 22 -8 22 -14 0 -16
43 -47 68 -48 12 0 22 -4 22 -10 0 -5 7 -10 15 -10 9 0 12 -6 9 -15 -4 -9 8
-29 30 -51 50 -50 48 -69 -4 -39 -33 19 -35 19 -37 -5 -1 -11 4 -20 12 -20 8
0 12 -6 9 -13 -3 -9 9 -18 36 -26 42 -12 47 -20 29 -38 -8 -8 -19 -9 -37 -2
-32 12 -72 4 -72 -15 0 -16 -40 -10 -52 8 -5 7 -8 7 -8 -2 0 -8 -8 -5 -22 8
-12 11 -32 20 -44 20 -12 0 -25 7 -28 15 -8 22 -72 47 -110 42 l-31 -4 33 -1
c34 -2 41 -12 18 -31 -10 -8 -15 -9 -18 -1 -4 12 -46 1 -47 -12 -1 -5 -1 -14
-1 -20 0 -9 -3 -9 -9 1 -5 8 -16 11 -25 8 -9 -4 -16 -2 -16 4 0 6 -6 9 -12 6
-19 -6 -88 31 -88 48 0 10 -10 15 -29 15 -16 0 -36 7 -45 15 -8 8 -20 15 -26
15 -6 0 -15 12 -20 26 -6 14 -14 23 -19 20 -4 -3 -17 1 -27 9 -10 8 -27 15
-36 15 -22 0 -68 21 -68 31 0 4 11 10 25 13 14 4 23 11 20 16 -4 6 -11 8 -16
5 -5 -3 -6 1 -2 10 3 10 0 21 -8 26 -20 12 -66 11 -74 -2 -5 -7 -16 -3 -31 12
-12 12 -30 19 -38 16 -8 -3 -16 -2 -18 2 -2 5 -17 12 -35 15 -25 6 -32 4 -36
-11 -4 -14 -5 -12 -6 6 -1 15 -6 21 -14 18 -8 -3 -20 -1 -28 4 -10 6 -16 3
-21 -9 -6 -16 -7 -16 -7 0 -1 11 -6 15 -15 12 -8 -3 -16 2 -19 13 -4 17 -5 17
-6 0 -1 -15 -5 -13 -26 10 -22 25 -26 26 -38 12 -14 -19 -129 -19 -135 -1 -5
16 -75 15 -90 0 -10 -10 -11 -6 -6 19 6 29 4 31 -15 26 -17 -4 -20 -2 -15 11
4 10 1 16 -9 16 -8 0 -17 -5 -19 -11 -2 -6 -17 -11 -33 -11 -17 0 -38 -7 -47
-16 -12 -10 -18 -11 -18 -3 0 7 -9 9 -25 5 -14 -3 -25 -2 -25 4 0 5 -11 13
-25 16 -24 6 -36 26 -15 26 6 0 10 -5 10 -11 0 -8 6 -7 17 2 14 12 12 15 -23
22 -21 4 -55 9 -74 11 -19 2 -54 11 -78 21 -32 13 -40 20 -32 30 15 19 -31 31
-110 31 -39 -1 -70 4 -78 12 -8 7 -18 10 -23 6 -5 -3 -8 0 -7 7 2 7 -12 17
-29 22 -18 5 -33 14 -33 18 0 5 12 4 26 -2 31 -11 37 -8 28 15 -7 19 -24 20
-58 5 -19 -9 -29 -9 -40 0 -11 9 -15 9 -19 -1 -3 -10 -12 -9 -37 5 -31 17 -32
17 -28 -1 4 -13 -1 -18 -16 -18 -12 0 -24 5 -28 10 -5 7 -8 4 -8 -7 0 -10 -5
-15 -11 -12 -6 4 -13 -3 -16 -15 -3 -12 -11 -19 -18 -16 -8 3 -16 -2 -19 -9
-3 -9 -12 -12 -23 -8 -15 6 -16 4 -6 -8 9 -11 8 -18 -3 -33 -7 -11 -17 -16
-21 -12 -4 4 -2 10 4 14 15 10 5 54 -11 49 -6 -3 -10 -10 -8 -16 1 -6 -2 -11
-8 -11 -5 0 -10 5 -10 10 0 6 -6 10 -14 10 -8 0 -18 9 -21 20 -7 22 -41 27
-48 8 -2 -7 -3 -3 -1 8 3 15 -2 23 -17 27 -13 4 -18 10 -14 17 6 9 2 9 -14 0
-12 -6 -27 -23 -33 -38 -9 -22 -12 -23 -15 -9 -3 9 -11 17 -20 17 -11 0 -14
-6 -9 -26 5 -17 3 -23 -4 -19 -5 3 -10 13 -10 21 0 8 -4 14 -10 14 -5 0 -10 4
-10 9 0 5 7 8 16 7 9 0 19 4 21 11 3 9 -4 10 -26 3 -21 -6 -33 -5 -38 3 -5 7
-10 1 -13 -16 -6 -32 -59 -71 -67 -49 -6 17 -23 15 -23 -3 0 -8 -6 -12 -14 -9
-8 3 -17 0 -21 -5 -3 -6 -11 -8 -17 -5 -6 4 -21 -6 -34 -21 -13 -16 -24 -23
-24 -16 0 9 -11 11 -40 6 -29 -5 -40 -3 -40 6 0 7 -6 5 -15 -7 -13 -17 -14
-17 -15 -1 0 17 -20 25 -20 7 0 -5 -17 -18 -37 -29 -21 -11 -32 -20 -24 -21
31 -1 -12 -30 -45 -30 -18 0 -36 -4 -39 -10 -3 -5 -16 -11 -28 -11 -17 -1 -18
-2 -4 -6 18 -5 24 -33 7 -33 -5 0 -10 5 -10 10 0 11 -50 14 -50 3 0 -5 -12
-16 -26 -26 l-25 -19 6 29 c5 21 4 24 -4 13 -6 -8 -11 -22 -11 -31 0 -15 -49
-69 -63 -69 -4 0 -7 7 -7 15 0 8 -4 15 -10 15 -5 0 -10 -5 -10 -11 0 -6 -9 -8
-20 -4 -15 5 -20 2 -20 -13 0 -15 -5 -18 -26 -14 -15 3 -29 13 -31 23 -3 11
-12 19 -20 19 -10 0 -14 -7 -10 -19 3 -13 0 -18 -8 -15 -7 3 -15 -4 -18 -15
-3 -15 -13 -21 -31 -21 -14 0 -26 5 -26 10 0 6 -5 10 -11 10 -6 0 -9 -7 -5
-15 3 -8 1 -15 -4 -15 -6 0 -10 11 -10 25 0 20 -5 25 -25 25 -18 0 -25 -5 -25
-19 0 -10 -9 -21 -19 -24 -26 -6 -23 -64 3 -59 12 2 16 -5 16 -31 0 -20 7 -41
19 -51 13 -12 17 -26 14 -54 -3 -20 -4 -52 -4 -69 1 -18 -4 -33 -10 -33 -11 0
-39 -24 -39 -34 0 -13 31 -5 36 9 4 10 14 13 28 9 26 -6 40 8 50 49 l7 29 20
-26 c11 -14 28 -26 38 -26 13 0 17 -7 16 -30 -1 -25 2 -30 21 -30 23 0 40 25
24 35 -13 8 -13 35 0 35 5 0 9 -6 7 -12 -1 -8 7 -12 21 -10 19 2 22 -2 17 -18
-5 -14 -2 -20 10 -20 9 0 13 5 10 10 -3 6 -3 10 2 10 13 0 28 -14 29 -27 2
-26 4 -29 25 -29 16 0 19 5 14 23 -4 18 -2 21 12 16 11 -4 14 -3 9 5 -10 16
21 45 39 38 8 -3 15 -12 15 -21 0 -9 9 -15 25 -15 33 0 75 20 75 37 0 19 21
16 27 -5 6 -24 83 -18 84 7 0 10 4 8 10 -8 9 -23 10 -24 25 -5 14 19 14 19 12
-1 -2 -14 4 -21 20 -23 12 -2 22 2 22 9 0 8 4 9 13 0 10 -8 17 -7 26 2 10 9
15 9 18 0 2 -7 10 -10 18 -7 7 3 28 -2 45 -11 17 -9 38 -14 46 -11 7 3 16 1
19 -5 4 -5 10 -7 15 -4 20 12 62 -16 77 -52 18 -45 44 -67 56 -50 5 7 6 4 2
-8 -18 -49 -17 -62 9 -79 20 -13 26 -25 26 -54 0 -27 6 -41 21 -50 13 -9 18
-19 14 -32 -3 -10 1 -33 11 -51 15 -29 15 -33 0 -41 -9 -5 -16 -16 -16 -23 0
-12 16 -15 74 -15 66 0 74 -2 79 -21 5 -17 1 -20 -21 -19 -50 4 -62 0 -62 -18
0 -23 35 -41 79 -40 19 1 37 -4 39 -10 2 -7 9 -12 15 -12 8 0 7 4 -1 12 -7 7
-12 24 -12 38 0 14 -5 31 -12 38 -16 16 -7 23 19 16 15 -4 23 -17 28 -42 10
-55 62 -143 96 -164 49 -30 53 -16 6 22 -29 25 -42 43 -42 61 l-1 27 29 -27
c16 -14 42 -46 58 -70 15 -24 45 -55 66 -69 33 -23 47 -26 107 -23 62 2 68 1
57 -13 -11 -13 -11 -16 3 -16 9 0 16 -4 16 -8 0 -10 80 -46 94 -43 18 4 46
-11 46 -25 0 -8 5 -14 10 -14 6 0 10 -7 10 -15 0 -10 10 -15 30 -15 22 0 28
-4 24 -15 -5 -11 1 -15 19 -15 13 0 41 -7 61 -15 27 -11 57 -14 116 -10 44 3
80 2 80 -2 0 -7 69 -10 124 -5 19 2 19 3 2 15 -18 13 -18 14 -1 21 10 4 21 2
25 -4 4 -7 13 -1 24 14 9 14 24 26 34 26 10 0 23 5 30 12 9 9 12 8 12 -5 0 -9
-6 -17 -14 -17 -8 0 -18 -5 -22 -11 -4 -8 10 -10 47 -9 77 3 147 -1 129 -7 -8
-3 -17 -9 -20 -13 -3 -4 -23 -15 -44 -24 -51 -21 -37 -37 36 -37 71 -1 84 -9
68 -39 l-12 -23 -12 22 -12 22 -12 -25 c-13 -28 -56 -38 -46 -11 9 23 -9 18
-24 -6 -10 -16 -17 -18 -25 -10 -14 14 -47 15 -47 1 0 -5 7 -10 15 -10 8 0 15
-4 15 -10 0 -5 7 -10 15 -10 8 0 23 -9 32 -20 10 -11 25 -20 35 -20 10 0 18
-7 18 -15 0 -22 -4 -30 -12 -27 -5 1 -8 -2 -8 -7 0 -9 -80 -32 -112 -32 -10 0
-18 -2 -18 -4 0 -11 63 -35 92 -35 18 0 40 -5 48 -11 11 -7 -1 -8 -40 -3 -30
3 -61 11 -67 16 -9 7 -13 7 -13 -1 0 -8 -8 -10 -22 -5 -36 11 -68 13 -68 4 0
-5 18 -14 40 -20 22 -6 40 -15 40 -20 0 -5 -12 -5 -27 -1 -16 4 -34 6 -41 4
-7 -3 -28 4 -47 15 -24 15 -35 17 -40 9 -3 -7 -3 -2 -1 10 3 19 1 21 -14 13
-13 -7 -21 -7 -25 0 -3 5 -27 10 -53 9 l-47 -1 35 -14 c81 -34 110 -50 110
-61 0 -15 -38 -21 -72 -10 -15 5 -35 7 -44 5 -24 -4 54 -58 84 -58 19 0 22 -5
20 -30 -2 -26 -6 -30 -33 -30 -56 0 -105 12 -105 26 0 14 -47 30 -110 38 -19
2 -48 11 -65 20 -33 18 -105 22 -105 6 0 -5 6 -11 13 -11 6 -1 18 -2 26 -3 8
0 16 -8 19 -16 3 -11 2 -12 -8 -4 -9 9 -18 8 -38 -2 -22 -11 -29 -11 -37 -1
-14 16 -52 37 -69 37 -7 0 -19 7 -26 15 -7 8 -21 15 -32 15 -10 0 -21 7 -24
15 -4 8 -15 15 -25 15 -10 0 -19 6 -19 14 0 15 -30 26 -71 26 -15 0 -32 7 -39
15 -7 8 -19 15 -27 15 -7 0 -16 6 -19 14 -6 15 -40 29 -63 26 -7 -1 -10 4 -6
10 3 6 3 10 -2 9 -22 -4 -31 3 -37 26 -7 26 -24 35 -23 13 1 -45 -4 -59 -20
-56 -11 2 -17 11 -15 21 2 9 -2 17 -8 17 -5 0 -10 -5 -10 -10 0 -6 -6 -10 -13
-8 -13 3 -17 -3 -17 -23 0 -5 4 -8 9 -4 5 3 8 -7 7 -22 -4 -34 -28 -41 -62
-18 -35 23 -92 27 -103 8 -14 -26 -21 2 -9 35 9 24 9 34 -1 46 -11 13 -30 15
-116 9 -72 -4 -104 -2 -109 6 -4 6 -21 11 -37 11 -17 0 -39 5 -50 11 -11 5
-28 9 -37 7 -12 -3 -3 -12 28 -28 32 -17 40 -25 28 -28 -10 -2 -18 -7 -18 -12
0 -5 6 -7 14 -4 8 3 17 1 21 -5 4 -7 -4 -11 -19 -11 -36 0 -32 -15 7 -27 25
-8 28 -12 15 -17 -11 -5 -27 1 -47 19 -50 45 -74 54 -107 40 -16 -6 -37 -10
-46 -7 -20 5 -25 -14 -5 -21 7 -3 4 -6 -6 -6 -11 -1 -31 5 -45 13 -15 8 -35
17 -45 20 -10 3 -15 11 -12 17 4 6 -2 17 -14 25 -12 8 -21 19 -21 24 0 11 62
-9 71 -23 4 -5 9 -5 13 1 3 6 15 8 26 5 11 -3 20 -3 20 1 0 7 -34 42 -46 47
-31 14 -84 53 -84 61 0 14 50 1 82 -22 14 -11 28 -15 30 -11 2 5 25 11 52 12
38 3 51 -1 62 -16 8 -10 14 -14 14 -7 0 6 -11 23 -25 38 -22 24 -30 26 -74 22
-46 -5 -49 -4 -40 14 5 10 20 19 32 19 20 1 20 2 -3 8 -50 12 -108 52 -103 71
3 10 -2 20 -11 23 -9 4 -16 11 -16 17 0 18 26 11 50 -15 29 -31 62 -32 94 -2
l24 23 -26 -1 c-15 0 -30 -5 -35 -12 -4 -7 -14 -10 -23 -6 -11 4 -12 9 -3 19
9 11 5 16 -17 24 -19 8 -24 14 -16 22 6 6 8 17 5 25 -3 8 0 19 8 23 11 7 10
10 -4 16 -9 3 -17 13 -17 21 0 8 -8 13 -18 11 -18 -3 -95 60 -88 71 7 11 -130
101 -223 147 l-94 46 -166 -1 c-179 -1 -243 -13 -351 -64 -30 -15 -56 -24 -58
-22 -2 2 5 14 17 26 12 13 21 30 21 40 0 9 7 20 16 23 9 4 14 13 10 21 -4 10
1 15 14 15 11 0 20 4 20 8 0 5 11 15 25 22 14 7 24 20 23 29 -2 8 11 22 27 30
17 9 32 19 35 22 3 3 20 14 38 23 18 9 40 32 49 51 15 32 15 36 -1 54 -9 10
-18 29 -19 42 -1 13 -10 31 -20 39 -17 14 -18 20 -7 58 7 23 16 39 20 37 14
-9 28 20 19 40 -7 18 -8 18 -10 -5 -1 -20 -3 -18 -8 10 -4 21 -12 34 -20 32
-7 -1 -10 2 -6 7 3 6 13 7 22 4 13 -5 13 -2 -2 21 -15 22 -24 27 -44 23 -15
-3 -35 1 -45 9 -14 10 -16 14 -5 14 12 0 12 2 -1 10 -8 5 -15 15 -15 22 0 7
-7 13 -15 13 -8 0 -14 -6 -12 -13 2 -10 -2 -10 -20 -1 -22 12 -22 12 -3 20 17
7 17 8 -6 8 -16 1 -29 -6 -33 -15 -4 -11 -13 -14 -27 -11 -15 4 -23 0 -26 -14
-3 -10 -9 -16 -14 -13 -5 3 -9 -2 -9 -10 0 -13 -3 -14 -18 -5 -22 14 -55 96
-42 104 6 3 8 16 6 28 -3 12 -5 25 -5 30 -1 12 -36 8 -50 -5 -11 -11 -13 -10
-9 3 5 12 0 14 -23 11 -16 -2 -29 -6 -29 -7 0 -2 16 -13 36 -26 36 -22 37 -22
50 -4 13 18 14 17 14 -7 0 -19 -5 -27 -17 -27 -10 1 -29 -2 -43 -5 -19 -5 -21
-4 -6 2 19 8 18 9 -5 17 -33 11 -53 12 -59 4 -3 -4 -19 -9 -35 -12 -17 -2 -48
-14 -70 -26 -22 -11 -50 -21 -62 -21 -12 0 -25 -4 -28 -10 -3 -5 -17 -10 -31
-10 -16 0 -24 -6 -24 -18 0 -23 -19 -42 -42 -42 -10 0 -18 -7 -18 -15 0 -8 -6
-15 -13 -15 -8 0 -20 -11 -27 -25 -8 -14 -20 -23 -27 -21 -7 3 -30 -11 -51
-31 -20 -21 -41 -36 -45 -35 -5 1 -5 -2 -2 -9 4 -6 -1 -19 -11 -29 -37 -37
-44 -49 -37 -66 4 -12 3 -15 -5 -10 -7 4 -20 2 -29 -3 -16 -9 -15 -11 7 -12
18 -1 20 -3 7 -6 -11 -3 -16 -10 -13 -20 4 -10 1 -13 -13 -8 -26 8 -64 -24
-50 -41 7 -9 2 -20 -17 -41 -14 -15 -30 -28 -35 -28 -5 0 -8 -4 -6 -10 1 -5 8
-9 14 -7 7 2 10 -3 7 -12 -3 -8 0 -17 6 -21 9 -6 9 -10 -1 -16 -8 -4 -20 -3
-29 4 -12 10 -13 9 -4 -3 29 -40 22 -67 -9 -35 -13 13 -16 13 -21 -1 -9 -22
-7 -26 5 -18 7 4 10 1 7 -7 -3 -8 -11 -14 -19 -14 -8 0 -14 -9 -14 -20 0 -11
-9 -23 -20 -27 -19 -6 -19 -6 1 -7 12 -1 24 -8 27 -16 7 -17 -9 -30 -18 -15
-3 5 -10 10 -16 10 -12 0 -12 -43 1 -56 6 -6 5 -19 -5 -37 -12 -23 -12 -28 1
-35 8 -5 15 -24 16 -46 1 -24 8 -42 20 -50 18 -13 18 -14 -2 -19 -28 -7 -37
-37 -17 -52 10 -7 17 -15 17 -19 0 -8 -42 15 -53 29 -5 6 -5 -1 -2 -14 6 -20
4 -23 -10 -18 -11 5 -15 3 -12 -5 2 -7 10 -12 16 -11 19 5 12 -19 -8 -24 -10
-2 -28 -18 -40 -34 -19 -26 -20 -31 -7 -44 17 -18 38 -19 53 -4 13 13 56 2 48
-12 -4 -5 -19 -9 -35 -9 -16 0 -36 -7 -45 -16 -12 -13 -19 -14 -30 -4 -11 9
-15 9 -15 1 0 -18 31 -25 51 -13 10 7 20 8 24 2 3 -5 1 -11 -5 -15 -5 -3 -10
-11 -10 -16 0 -6 6 -7 12 -2 7 4 24 9 37 11 29 4 79 28 104 50 21 18 21 18
142 34 50 6 97 17 106 24 8 8 20 14 26 14 6 0 16 7 23 15 10 13 110 65 124 65
1 0 3 -13 3 -30 0 -33 -20 -40 -36 -12 -9 16 -11 16 -28 0 -15 -16 -16 -18 -1
-18 9 0 23 -7 32 -15 8 -9 20 -14 27 -13 7 2 18 -8 25 -22 11 -21 14 -22 20
-7 3 10 23 27 43 37 57 31 112 85 115 114 3 30 16 48 16 23 0 -21 14 -22 35
-1 20 21 10 31 -35 37 -28 3 -26 4 15 6 28 1 57 6 65 11 8 5 11 10 6 10 -6 0
-2 6 9 13 10 8 15 19 12 24 -4 6 3 13 14 16 24 7 25 9 -15 -122 -28 -91 -33
-150 -14 -181 10 -15 10 -26 0 -53 -21 -59 -10 -247 14 -247 8 0 16 -11 19
-25 3 -14 7 -36 10 -50 4 -17 -1 -30 -14 -42 -17 -14 -18 -18 -5 -27 12 -10 5
-20 -42 -66 -53 -51 -55 -54 -33 -62 12 -5 30 -6 40 -3 14 5 16 1 12 -17 -4
-20 -3 -21 9 -7 7 8 27 24 43 35 l30 19 -26 -30 c-86 -96 -154 -185 -144 -185
3 0 19 7 35 15 17 9 30 13 30 10 0 -8 -44 -69 -52 -73 -5 -2 -8 -9 -8 -17 0
-7 -7 -29 -15 -49 -8 -20 -15 -39 -14 -42 0 -4 -5 -10 -11 -14 -9 -6 -9 -13 0
-30 11 -20 10 -22 -4 -17 -16 6 -23 -7 -8 -16 4 -3 7 -26 7 -51 0 -25 4 -46 8
-46 5 0 7 -9 4 -20 -4 -15 0 -20 16 -21 17 -1 18 -2 5 -6 -10 -2 -18 -9 -18
-14 0 -17 29 -41 41 -33 7 4 10 1 7 -7 -3 -8 -15 -13 -26 -12 -15 2 -20 -2
-16 -12 4 -8 11 -15 18 -15 6 0 3 -5 -7 -11 -14 -8 -18 -21 -16 -52 3 -54 7
-61 26 -45 13 10 15 9 11 -7 -2 -13 -10 -19 -22 -17 -14 3 -17 -1 -12 -13 8
-21 -10 -55 -29 -55 -18 0 -19 -12 -3 -28 9 -9 9 -15 0 -24 -7 -7 -12 -18 -12
-26 0 -12 3 -12 15 -2 19 15 27 9 29 -22 0 -13 6 -23 11 -24 6 0 18 -4 29 -9
11 -5 26 -4 37 3 10 7 28 12 38 12 11 0 25 8 30 18 6 9 11 11 11 5 0 -8 11
-11 33 -8 17 3 26 3 20 -1 -22 -10 -14 -27 10 -21 20 5 20 5 5 -7 -16 -12 -16
-14 0 -29 13 -14 14 -17 2 -17 -9 0 -11 -3 -5 -8 19 -13 46 -62 40 -72 -3 -6
1 -7 10 -4 11 4 14 13 9 28 -4 11 -3 18 1 14 4 -4 9 -18 11 -30 2 -13 6 -34
10 -47 6 -20 4 -23 -10 -18 -14 6 -15 3 -6 -13 6 -11 17 -20 25 -20 8 0 15 -7
15 -15 0 -21 18 -19 22 3 3 14 5 13 10 -5 5 -18 2 -23 -13 -23 -10 0 -19 -7
-19 -15 0 -8 -4 -15 -9 -15 -5 0 -8 14 -6 30 2 17 0 30 -5 30 -11 0 -14 -23
-12 -87 1 -24 -3 -43 -8 -43 -5 0 -8 14 -8 30 1 17 -2 33 -5 37 -4 3 -2 12 4
19 6 8 7 14 0 18 -15 9 -30 -26 -21 -49 4 -11 3 -26 -3 -33 -7 -9 -5 -17 9
-27 17 -13 17 -16 4 -27 -8 -7 -14 -23 -12 -35 2 -14 -3 -23 -17 -28 -12 -3
-21 -10 -21 -15 0 -5 6 -7 14 -4 8 3 17 0 21 -7 6 -8 -1 -10 -24 -7 -29 4 -30
3 -16 -13 15 -15 14 -17 -10 -23 -28 -7 -34 -26 -9 -26 14 0 14 -3 4 -15 -10
-12 -15 -13 -28 -3 -13 11 -14 9 -8 -16 6 -25 5 -28 -13 -23 -13 3 -21 -1 -25
-15 -3 -14 -10 -19 -20 -15 -22 9 -46 -2 -47 -22 0 -13 -2 -12 -8 3 -7 19 -8
19 -16 0 -4 -10 -9 -23 -9 -27 -1 -5 -8 -14 -18 -21 -10 -7 -14 -21 -11 -37 4
-24 7 -25 96 -27 50 -2 96 -7 102 -11 5 -5 24 -12 40 -16 27 -7 28 -8 10 -15
-21 -9 -21 -9 13 -16 16 -3 22 1 22 14 1 16 1 16 11 0 5 -10 15 -18 20 -18 6
0 17 -7 25 -15 19 -18 38 -20 29 -2 -4 6 -1 5 7 -4 7 -9 20 -18 28 -22 9 -3
10 -6 3 -6 -7 -1 -13 -8 -13 -16 0 -8 4 -14 8 -13 4 2 21 -10 36 -27 15 -16
33 -30 39 -31 7 0 20 -2 30 -2 10 -1 16 -6 12 -12 -3 -5 -1 -17 4 -27 25 -48
39 -88 34 -97 -4 -5 -10 -1 -15 10 -5 12 -6 8 -2 -14 3 -19 1 -39 -6 -47 -10
-12 -10 -15 2 -15 8 0 19 5 24 10 8 8 15 6 24 -5 11 -13 10 -18 -6 -29 -24
-18 -12 -31 14 -17 17 9 22 8 27 -8 3 -11 14 -22 23 -24 12 -3 11 -5 -5 -6
-24 -1 -31 -15 -13 -26 6 -3 10 -21 10 -39 0 -17 5 -37 11 -43 7 -7 6 -21 -6
-48 -10 -26 -12 -42 -5 -49 14 -14 62 33 57 56 -3 10 -1 16 3 13 5 -3 11 -1
15 5 3 5 14 10 24 10 10 0 26 9 36 20 12 14 25 18 41 14 13 -4 24 -2 24 3 0 5
18 10 41 11 24 1 38 -2 34 -8 -3 -6 -3 -16 2 -22 4 -7 8 -17 8 -23 0 -5 6 -11
13 -11 25 -3 27 -5 12 -14 -13 -9 -13 -12 3 -21 9 -5 17 -16 17 -23 0 -7 12
-19 28 -26 25 -11 25 -13 8 -19 -14 -5 -16 -10 -8 -15 7 -4 12 -4 12 -1 0 4 7
0 15 -9 8 -8 15 -18 15 -22 0 -5 -5 -3 -12 4 -20 20 -26 14 -34 -33 -7 -47
-22 -59 -31 -25 -3 13 -14 20 -29 20 -25 0 -45 -21 -26 -28 23 -7 13 -41 -13
-44 -20 -2 -22 -6 -14 -18 8 -11 12 -12 16 -2 13 33 22 0 23 -89 0 -15 7 -29
15 -33 9 -3 13 -2 10 4 -3 6 -1 10 4 10 6 0 11 -9 11 -20 0 -11 -4 -20 -9 -20
-5 0 -10 -15 -10 -32 0 -18 0 -51 0 -74 0 -32 -5 -43 -23 -52 -20 -9 -20 -11
-4 -11 10 -1 30 11 43 26 27 28 77 57 118 67 14 4 25 13 25 20 0 29 55 27 64
-3 3 -9 8 -31 11 -50 8 -46 10 -48 45 -49 20 0 30 4 30 14 0 8 7 14 15 14 8 0
15 -5 15 -11 0 -5 -4 -7 -10 -4 -5 3 -10 1 -10 -6 0 -7 10 -9 25 -7 17 4 25 1
25 -8 0 -8 6 -11 15 -8 8 4 12 11 8 17 -4 6 0 8 10 4 9 -3 19 -2 22 3 4 6 -3
10 -14 10 -17 0 -21 6 -21 35 0 19 5 35 11 35 5 0 7 -4 4 -10 -3 -5 3 -10 13
-10 11 0 23 -8 27 -17 6 -16 8 -15 20 6 7 14 12 30 11 35 -2 6 -1 8 1 3 3 -4
9 -5 14 -1 5 3 12 -2 15 -10 9 -24 23 -19 17 7 -6 21 -6 21 16 -3 12 -14 21
-20 20 -15 -3 25 2 46 10 41 5 -4 8 -14 7 -23 -4 -24 26 -56 37 -40 5 7 6 4 2
-10 -7 -26 10 -63 29 -63 9 0 12 -9 8 -26 -4 -23 -2 -25 17 -19 12 4 21 2 21
-4 0 -6 -4 -11 -10 -11 -5 0 -7 -6 -4 -14 3 -8 1 -17 -5 -21 -6 -3 -11 -17
-11 -31 0 -14 -4 -22 -10 -19 -5 3 -10 -3 -10 -14 0 -12 -4 -21 -10 -21 -16 0
-11 -32 8 -46 16 -13 16 -13 0 -14 -10 0 -18 4 -18 9 0 5 -13 9 -30 9 -38 -1
-39 -19 -1 -36 16 -7 31 -22 34 -33 3 -13 10 -18 17 -14 6 4 9 14 5 22 -5 14
-3 14 17 1 25 -17 33 -76 14 -91 -6 -5 -1 -5 12 -2 24 7 29 -4 10 -24 -11 -10
-9 -16 10 -31 15 -13 22 -29 21 -52 0 -27 -2 -30 -9 -13 -8 18 -9 18 -10 -5
-3 -45 -7 -70 -11 -73 -2 -2 -19 -10 -37 -19 l-33 -15 81 -7 c75 -7 216 -3
400 10 241 17 553 72 786 140 167 48 206 63 198 75 -3 5 11 9 31 9 36 0 200
59 190 68 -3 3 2 13 11 23 10 11 12 19 5 24 -17 10 -13 21 9 21 13 0 20 -7 20
-19 0 -10 5 -15 10 -12 6 3 10 2 10 -4 0 -14 13 -9 158 60 231 109 522 290
723 450 122 97 375 324 382 343 7 17 -1 26 -23 26 -9 0 -26 9 -37 19 -12 11
-23 17 -26 14 -8 -8 -48 7 -42 17 3 4 -2 13 -10 20 -7 6 -11 18 -8 26 3 8 0
14 -6 14 -6 0 -11 -4 -11 -10 0 -19 -19 -10 -75 35 -31 25 -60 43 -65 40 -6
-3 -10 2 -10 13 0 10 -11 29 -26 42 -31 31 -43 17 -38 -46 2 -25 -1 -44 -6
-44 -6 0 -10 9 -10 20 0 11 -4 20 -10 20 -5 0 -10 -11 -10 -25 0 -17 5 -25 18
-25 9 0 23 -9 30 -20 7 -11 19 -20 28 -20 11 0 14 -6 9 -21 -6 -19 -4 -21 14
-16 12 3 19 2 16 -2 -6 -11 20 -35 94 -86 53 -37 61 -46 46 -52 -11 -4 -20 -2
-23 5 -2 7 -10 12 -17 12 -17 0 -107 59 -118 77 -8 14 -29 18 -24 5 1 -4 -3
-7 -8 -7 -6 0 -9 8 -8 18 2 10 -5 21 -15 24 -9 4 -22 14 -29 22 -10 14 -12 14
-18 -2 -5 -12 -14 -16 -26 -12 -13 4 -19 1 -19 -9 0 -21 -16 -20 -32 2 -14 19
-95 31 -83 12 9 -14 -14 -13 -30 2 -45 40 -66 50 -85 38 -15 -9 -70 8 -70 22
0 5 -10 6 -22 2 -35 -11 -104 -6 -142 10 -20 8 -36 12 -36 9 0 -3 -6 0 -14 6
-11 9 -15 9 -19 -1 -4 -9 -6 -9 -6 -1 -1 7 -22 22 -48 35 -79 39 -83 42 -77
60 6 21 -6 24 -24 6 -10 -10 -14 -8 -18 9 -3 12 -13 23 -23 26 -9 2 -17 14
-18 27 -1 13 -8 27 -15 31 -9 6 -10 9 -1 9 7 0 21 -10 33 -22 30 -32 26 -2 -6
44 -15 21 -30 35 -35 32 -5 -3 -9 -1 -9 5 0 13 37 24 52 15 7 -4 4 3 -7 15
-18 21 -20 21 -26 4 -9 -21 -12 -10 -9 30 1 15 -3 27 -9 27 -14 0 -14 27 -1
35 5 3 7 0 4 -8 -4 -10 7 -18 38 -25 25 -7 61 -28 84 -49 72 -66 134 -91 134
-54 0 10 7 21 15 25 27 10 16 34 -20 46 -19 6 -40 20 -45 31 -6 10 -19 19 -29
19 -10 0 -23 11 -29 25 -14 30 -8 31 25 5 14 -11 31 -20 37 -20 6 0 16 -10 21
-22 6 -13 13 -21 16 -18 10 7 49 -31 49 -47 0 -14 33 -30 85 -42 22 -5 29 -12
27 -25 -3 -15 -1 -16 11 -5 13 12 13 16 1 30 -8 8 -14 22 -14 30 0 10 -2 11
-8 2 -5 -8 -11 -3 -19 13 -9 19 -8 24 3 24 9 0 11 6 7 18 -9 22 -21 34 -58 52
-16 8 -36 23 -43 33 -7 9 -19 17 -26 17 -13 0 -26 20 -26 39 0 4 14 6 30 3 17
-2 30 -8 30 -12 0 -5 9 -6 20 -3 23 6 27 23 5 23 -8 0 -15 4 -15 10 0 6 10 5
28 -1 94 -38 100 -40 129 -33 l25 7 -31 15 c-32 15 -42 42 -16 42 8 0 15 7 15
15 0 8 -8 15 -18 15 -28 0 -42 19 -32 46 6 14 6 26 0 29 -6 4 -10 14 -10 25 0
13 5 17 20 13 11 -3 20 -12 20 -19 0 -8 7 -14 16 -14 14 0 14 3 4 15 -10 12
-10 15 4 15 9 0 16 -7 16 -15 0 -18 5 -18 31 -4 16 8 31 5 70 -14 27 -14 49
-21 49 -16 0 13 47 11 55 -2 4 -6 13 -8 21 -5 7 3 16 1 19 -4 4 -6 14 -10 23
-10 9 0 30 -11 46 -25 26 -22 46 -30 69 -26 4 0 7 -6 7 -15 0 -11 6 -15 20
-11 11 3 23 -1 28 -7 4 -7 26 -26 50 -41 34 -22 45 -26 52 -16 10 18 30 5 30
-19 0 -10 9 -22 20 -25 23 -7 27 -25 5 -25 -17 0 -112 48 -120 60 -2 4 -25 13
-50 20 -25 7 -48 17 -51 21 -9 14 -41 10 -48 -6 -3 -8 -12 -12 -21 -9 -11 5
-13 10 -5 19 8 9 1 12 -30 9 -22 -1 -40 2 -40 7 0 5 -6 9 -14 9 -8 0 -16 4
-18 9 -1 5 -16 12 -33 15 -16 4 -24 3 -17 0 6 -3 12 -12 12 -20 0 -8 9 -14 19
-14 11 0 26 -6 33 -14 8 -7 24 -17 36 -20 12 -4 22 -12 22 -17 0 -5 7 -9 15
-9 8 0 15 -4 15 -9 0 -5 11 -12 25 -15 13 -3 29 -15 35 -26 6 -11 17 -20 25
-20 8 0 15 -4 15 -10 0 -5 10 -12 23 -15 30 -8 64 -54 47 -65 -8 -5 -7 -9 4
-13 9 -4 16 -13 16 -22 0 -8 5 -15 10 -15 6 0 10 -4 10 -10 0 -5 -8 -7 -17 -4
-14 5 -13 2 3 -13 12 -10 30 -23 40 -30 18 -11 18 -12 -1 -28 -17 -14 -17 -16
-2 -11 10 3 17 0 17 -8 0 -7 10 -22 23 -34 24 -23 57 -30 57 -12 0 6 -11 10
-25 10 -16 0 -25 6 -25 15 0 8 -4 15 -10 15 -5 0 -10 9 -10 20 0 23 18 27 26
5 4 -8 13 -15 21 -15 8 0 24 -11 35 -25 17 -22 23 -24 35 -13 14 11 15 7 8
-30 -7 -42 -7 -43 19 -36 21 5 28 1 38 -20 6 -15 17 -25 24 -22 14 6 36 -13
61 -50 8 -13 19 -24 24 -24 15 0 160 172 273 325 179 241 307 453 278 462 -18
7 -4 23 20 23 15 0 19 5 15 20 -3 13 0 20 9 20 29 0 179 332 264 590 334 1003
265 2080 -193 3015 -156 319 -346 608 -567 863 -77 89 -78 89 -166 68z m206
-336 c0 -5 -7 -10 -16 -10 -8 0 -12 5 -9 10 3 6 10 10 16 10 5 0 9 -4 9 -10z
m75 -150 c18 -8 17 -9 -7 -9 -16 -1 -28 4 -28 9 0 12 8 12 35 0z m-114 -183
c-13 -13 -26 -3 -16 12 3 6 11 8 17 5 6 -4 6 -10 -1 -17z m-41 4 c0 -11 -39
-21 -45 -11 -2 4 -2 10 2 14 10 9 43 7 43 -3z m287 -17 c-3 -3 -12 -4 -19 -1
-8 3 -5 6 6 6 11 1 17 -2 13 -5z m-232 -52 c-97 -26 -120 -32 -140 -32 -16 0
-17 2 -6 9 8 5 20 7 28 4 7 -3 13 -1 13 5 0 9 35 20 94 28 16 2 31 6 34 9 3 2
10 1 16 -2 5 -4 -12 -13 -39 -21z m85 24 c0 -11 -19 -15 -25 -6 -3 5 1 10 9
10 9 0 16 -2 16 -4z m-265 -42 c13 -5 14 -8 3 -15 -10 -7 -9 -9 5 -9 9 0 17
-4 17 -10 0 -5 -9 -10 -20 -10 -11 0 -20 4 -20 9 0 5 -3 16 -6 25 -7 18 -4 19
21 10z m74 -80 c9 -9 -5 -12 -31 -7 -16 3 -28 10 -28 15 0 9 49 3 59 -8z m-25
-40 c18 -7 12 -24 -10 -24 -8 0 -14 7 -14 15 0 17 2 18 24 9z m331 -4 c-3 -5
-1 -10 4 -10 6 0 11 -4 11 -10 0 -5 -12 -10 -26 -10 -21 0 -24 3 -15 13 6 8 8
17 4 20 -3 4 1 7 11 7 9 0 14 -4 11 -10z m-262 -30 c3 -11 1 -18 -4 -14 -5 3
-9 12 -9 20 0 20 7 17 13 -6z m-23 -10 c0 -5 -2 -10 -4 -10 -3 0 -8 5 -11 10
-3 6 -1 10 4 10 6 0 11 -4 11 -10z m-90 -10 c0 -5 -4 -10 -10 -10 -5 0 -10 5
-10 10 0 6 5 10 10 10 6 0 10 -4 10 -10z m-3271 -114 c-9 -8 -10 -7 -5 7 3 10
7 24 7 30 1 7 3 4 6 -7 3 -10 -1 -23 -8 -30z m101 34 c0 -5 -2 -10 -4 -10 -3
0 -8 5 -11 10 -3 6 -1 10 4 10 6 0 11 -4 11 -10z m3207 -6 c-3 -3 -12 -4 -19
-1 -8 3 -5 6 6 6 11 1 17 -2 13 -5z m31 -46 c-3 -7 -11 -13 -18 -13 -7 0 -15
6 -17 13 -3 7 4 12 17 12 13 0 20 -5 18 -12z m122 0 c0 -7 -32 -12 -52 -9 -5
0 -8 -4 -8 -10 0 -6 -6 -9 -12 -6 -7 2 -18 -3 -25 -12 -9 -12 -14 -13 -24 -4
-13 13 2 35 31 45 23 7 90 5 90 -4z m-520 -68 c0 -5 -2 -10 -4 -10 -3 0 -8 5
-11 10 -3 6 -1 10 4 10 6 0 11 -4 11 -10z m70 -44 c0 -3 -4 -8 -10 -11 -5 -3
-10 -1 -10 4 0 6 5 11 10 11 6 0 10 -2 10 -4z m0 -36 c0 -5 -4 -10 -10 -10 -5
0 -10 5 -10 10 0 6 5 10 10 10 6 0 10 -4 10 -10z m75 -20 c3 -5 4 -14 0 -20
-8 -13 -35 -1 -35 16 0 16 26 19 35 4z m-72 -7 c-7 -2 -19 -2 -25 0 -7 3 -2 5
12 5 14 0 19 -2 13 -5z m-3525 -22 c3 -8 -1 -12 -9 -9 -7 2 -15 10 -17 17 -3
8 1 12 9 9 7 -2 15 -10 17 -17z m3537 -1 c3 -5 1 -10 -4 -10 -6 0 -11 5 -11
10 0 6 2 10 4 10 3 0 8 -4 11 -10z m-3665 -10 c0 -5 -4 -10 -10 -10 -5 0 -10
5 -10 10 0 6 5 10 10 10 6 0 10 -4 10 -10z m4420 -31 c0 -11 -27 -12 -34 0 -3
4 -3 11 0 14 8 8 34 -3 34 -14z m-4155 -10 c11 -17 -1 -21 -15 -4 -8 9 -8 15
-2 15 6 0 14 -5 17 -11z m-192 -46 c-7 -2 -19 -2 -25 0 -7 3 -2 5 12 5 14 0
19 -2 13 -5z m47 -33 c-6 -12 -14 -19 -18 -16 -3 4 -1 11 5 17 6 6 9 19 6 28
-5 12 -3 13 6 5 10 -9 10 -17 1 -34z m60 5 c0 -8 8 -15 17 -15 14 0 15 -2 4
-12 -10 -11 -15 -9 -27 6 -16 23 -18 36 -4 36 6 0 10 -7 10 -15z m3725 5 c35
-13 22 -31 -18 -23 -40 7 -45 12 -27 23 18 12 14 12 45 0z m265 -26 c0 -8 -4
-12 -10 -9 -5 3 -10 13 -10 21 0 8 5 12 10 9 6 -3 10 -13 10 -21z m-4095 6
c-3 -5 -12 -10 -18 -10 -7 0 -6 4 3 10 19 12 23 12 15 0z m3885 -5 c0 -8 -4
-15 -10 -15 -5 0 -10 7 -10 15 0 8 5 15 10 15 6 0 10 -7 10 -15z m-1 -41 c2
-2 2 -6 0 -9 -8 -7 -49 7 -49 17 0 8 38 2 49 -8z m-3789 -44 c-6 -11 -16 -20
-23 -19 -9 0 -9 2 1 6 6 2 12 11 12 19 0 8 5 14 10 14 7 0 7 -6 0 -20z m3290
-16 c0 -8 -5 -12 -10 -9 -6 4 -8 11 -5 16 9 14 15 11 15 -7z m368 2 c-2 -1
-12 -8 -22 -16 -18 -14 -19 -14 -7 8 7 12 17 20 22 16 6 -3 9 -7 7 -8z m-3533
-16 c3 -5 1 -10 -4 -10 -6 0 -11 5 -11 10 0 6 2 10 4 10 3 0 8 -4 11 -10z
m3415 -10 c0 -5 -7 -10 -15 -10 -8 0 -15 5 -15 10 0 6 7 10 15 10 8 0 15 -4
15 -10z m63 -59 c-4 -17 -8 -19 -14 -9 -7 10 -9 9 -9 -4 0 -10 -4 -18 -10 -18
-5 0 -10 4 -10 9 0 5 -3 16 -6 24 -4 11 2 16 23 19 15 2 29 3 30 3 1 -1 0 -11
-4 -24z m-356 13 c-3 -3 -12 -4 -19 -1 -8 3 -5 6 6 6 11 1 17 -2 13 -5z m33
-29 c-6 -7 -9 -19 -8 -26 2 -9 -8 -15 -27 -17 l-30 -4 28 22 c16 12 26 28 23
36 -3 8 0 11 10 7 10 -4 12 -9 4 -18z m43 4 c-4 -13 -9 -17 -15 -11 -11 11 -3
32 12 32 4 0 6 -9 3 -21z m47 17 c0 -2 -7 -17 -15 -32 -16 -30 -19 -25 -9 14
5 18 24 33 24 18z m40 -17 c0 -6 -4 -7 -10 -4 -5 3 -10 11 -10 16 0 6 5 7 10
4 6 -3 10 -11 10 -16z m320 1 c0 -5 -7 -7 -15 -4 -8 4 -15 8 -15 10 0 2 7 4
15 4 8 0 15 -4 15 -10z m-270 -10 c-19 -13 -30 -13 -30 0 0 6 10 10 23 10 18
0 19 -2 7 -10z m310 0 c0 -5 -2 -10 -4 -10 -3 0 -8 5 -11 10 -3 6 -1 10 4 10
6 0 11 -4 11 -10z m-230 -10 c0 -5 -5 -10 -11 -10 -5 0 -7 5 -4 10 3 6 8 10
11 10 2 0 4 -4 4 -10z m130 -6 c0 -2 -9 -4 -20 -4 -11 0 -20 4 -20 9 0 5 9 7
20 4 11 -3 20 -7 20 -9z m-190 -14 c0 -5 -2 -10 -4 -10 -3 0 -8 5 -11 10 -3 6
-1 10 4 10 6 0 11 -4 11 -10z m149 1 c9 -6 10 -11 2 -15 -6 -4 -11 -2 -11 3 0
6 -4 11 -10 11 -5 0 -7 -6 -4 -14 3 -7 -2 -16 -10 -19 -11 -5 -16 0 -16 12 0
17 11 28 30 30 3 0 11 -3 19 -8z m-2762 -23 c-3 -8 -6 -5 -6 6 -1 11 2 17 5
13 3 -3 4 -12 1 -19z m2833 2 c0 -5 -7 -7 -15 -4 -8 4 -15 8 -15 10 0 2 7 4
15 4 8 0 15 -4 15 -10z m-2197 -17 c8 -7 -11 -33 -24 -33 -5 0 -9 9 -9 20 0
19 20 27 33 13z m-2483 -28 c-7 -9 -15 -13 -19 -10 -3 3 1 10 9 15 21 14 24
12 10 -5z m4710 -20 c6 -4 7 0 4 10 -5 12 -2 16 12 13 24 -4 43 -20 37 -31 -7
-11 37 -57 53 -57 28 0 21 -17 -6 -18 -17 0 -33 6 -38 14 -5 9 -25 16 -45 17
-28 2 -37 6 -37 20 0 11 -9 21 -19 24 -11 3 -22 11 -25 18 -4 10 2 11 24 5 16
-5 34 -11 40 -15z m-2272 4 c-2 -6 -8 -10 -13 -10 -5 0 -11 4 -13 10 -2 6 4
11 13 11 9 0 15 -5 13 -11z m2097 -19 c3 -5 1 -10 -4 -10 -6 0 -11 5 -11 10 0
6 2 10 4 10 3 0 8 -4 11 -10z m-4257 -32 c-6 -18 -28 -21 -28 -4 0 9 7 16 16
16 9 0 14 -5 12 -12z m4327 2 c3 -5 17 -10 31 -10 13 0 24 -4 24 -9 0 -5 -8
-7 -19 -4 -10 3 -22 0 -25 -6 -4 -6 -16 -11 -28 -11 -18 0 -19 2 -7 17 12 15
12 16 -3 10 -18 -6 -33 5 -21 17 10 10 41 7 48 -4z m-5020 -10 c3 -5 -1 -10
-9 -10 -9 0 -16 5 -16 10 0 6 4 10 9 10 6 0 13 -4 16 -10z m623 -22 c-2 -15
-11 -24 -25 -26 -25 -4 -31 16 -11 36 20 20 40 14 36 -10z m92 -8 c0 -4 -6
-13 -14 -19 -17 -14 -31 2 -22 24 5 15 36 10 36 -5z m4360 -4 c0 -3 -4 -8 -10
-11 -5 -3 -10 -1 -10 4 0 6 5 11 10 11 6 0 10 -2 10 -4z m100 -26 c10 0 31 -5
46 -10 26 -10 26 -11 8 -24 -20 -15 -52 -6 -67 21 -5 7 -12 11 -18 8 -5 -4 -6
2 -2 11 4 11 8 13 11 6 2 -7 12 -12 22 -12z m-4573 -26 c-9 -9 -28 6 -21 18 4
6 10 6 17 -1 6 -6 8 -13 4 -17z m63 17 c0 -5 -7 -11 -15 -15 -15 -5 -20 5 -8
17 9 10 23 9 23 -2z m-716 -27 c3 -8 2 -12 -4 -9 -6 3 -10 10 -10 16 0 14 7
11 14 -7z m5376 2 c9 -12 8 -15 -9 -13 -21 1 -26 8 -14 20 9 9 9 9 23 -7z
m-177 -31 c12 2 17 -2 15 -13 -2 -12 -12 -16 -33 -14 -35 4 -50 16 -41 31 5 7
14 8 24 2 9 -4 25 -7 35 -6z m102 -35 c3 -5 1 -10 -4 -10 -6 0 -11 5 -11 10 0
6 2 10 4 10 3 0 8 -4 11 -10z m-4212 -165 c-2 -10 -83 -26 -83 -16 0 11 44 29
65 27 11 0 19 -5 18 -11z m1607 0 c0 -8 -2 -15 -4 -15 -2 0 -6 7 -10 15 -3 8
-1 15 4 15 6 0 10 -7 10 -15z m-1545 -15 c-3 -5 -12 -7 -20 -3 -21 7 -19 13 6
13 11 0 18 -4 14 -10z m-45 -25 c7 -8 8 -15 2 -15 -5 0 -15 7 -22 15 -7 8 -8
15 -2 15 5 0 15 -7 22 -15z m-25 -24 c3 -5 1 -12 -4 -15 -5 -3 -11 1 -15 9 -6
16 9 21 19 6z m-385 -35 c0 -3 -4 -8 -10 -11 -5 -3 -10 -1 -10 4 0 6 5 11 10
11 6 0 10 -2 10 -4z m-775 -36 c3 -5 1 -10 -4 -10 -6 0 -11 5 -11 10 0 6 2 10
4 10 3 0 8 -4 11 -10z m582 -56 c-3 -3 -12 -4 -19 -1 -8 3 -5 6 6 6 11 1 17
-2 13 -5z m-102 -44 c-3 -5 -13 -10 -21 -10 -8 0 -14 5 -14 10 0 6 9 10 21 10
11 0 17 -4 14 -10z m-400 -10 c3 -5 1 -10 -4 -10 -6 0 -11 5 -11 10 0 6 2 10
4 10 3 0 8 -4 11 -10z m1815 -40 c0 -5 -7 -7 -15 -4 -8 4 -15 8 -15 10 0 2 7
4 15 4 8 0 15 -4 15 -10z m1865 -99 c3 -5 1 -12 -5 -16 -5 -3 -10 1 -10 9 0
18 6 21 15 7z m-1845 -51 c0 -5 -7 -7 -15 -4 -8 4 -15 8 -15 10 0 2 7 4 15 4
8 0 15 -4 15 -10z m2201 -122 c10 -18 9 -20 -6 -15 -9 4 -19 7 -21 7 -2 0 -4
7 -4 15 0 22 18 18 31 -7z m137 -29 c-18 -12 -68 -11 -68 0 0 11 47 19 68 12
11 -3 11 -5 0 -12z m87 -9 c3 -5 1 -10 -4 -10 -6 0 -11 5 -11 10 0 6 2 10 4
10 3 0 8 -4 11 -10z m-94 -47 c4 -4 -18 -7 -49 -7 -81 3 -84 3 -77 13 6 11
114 6 126 -6z m93 -4 c-3 -5 -10 -7 -15 -3 -5 3 -7 10 -3 15 3 5 10 7 15 3 5
-3 7 -10 3 -15z m46 0 c0 -5 -7 -9 -15 -9 -15 0 -20 12 -9 23 8 8 24 -1 24
-14z m-2530 -20 c3 -3 22 -12 43 -20 36 -13 52 -39 23 -39 -12 0 -116 77 -116
86 0 5 43 -18 50 -27z m2440 21 c0 -5 -7 -10 -16 -10 -8 0 -12 5 -9 10 3 6 10
10 16 10 5 0 9 -4 9 -10z m-1510 -25 c0 -8 8 -15 18 -15 14 0 15 -2 2 -10 -19
-12 -43 -13 -36 -1 3 5 -1 12 -10 15 -8 3 -12 10 -9 16 10 15 35 12 35 -5z
m1260 5 c0 -5 -6 -10 -14 -10 -8 0 -18 5 -21 10 -3 6 3 10 14 10 12 0 21 -4
21 -10z m-3175 -10 c3 -5 1 -10 -4 -10 -6 0 -11 5 -11 10 0 6 2 10 4 10 3 0 8
-4 11 -10z m3335 0 c0 -5 -5 -10 -11 -10 -5 0 -7 5 -4 10 3 6 8 10 11 10 2 0
4 -4 4 -10z m-3295 -50 c-3 -5 -11 -10 -16 -10 -6 0 -7 5 -4 10 3 6 11 10 16
10 6 0 7 -4 4 -10z m1458 -11 c35 -11 95 -1 75 13 -8 6 -5 7 12 2 14 -4 27
-11 28 -15 2 -5 12 -9 23 -9 10 0 19 -4 19 -10 0 -5 -5 -10 -11 -10 -6 0 -9
-7 -6 -15 8 -20 -14 -31 -27 -13 -8 10 -18 13 -32 8 -11 -5 -27 -4 -34 0 -7 4
-19 6 -27 3 -7 -3 -13 2 -13 11 0 19 -5 20 -30 6 -15 -8 -24 -6 -40 10 -11 11
-25 20 -31 20 -5 0 -7 4 -4 10 6 10 48 5 98 -11z m-548 1 c3 -5 2 -10 -4 -10
-5 0 -13 5 -16 10 -3 6 -2 10 4 10 5 0 13 -4 16 -10z m285 -32 c9 -12 70 -22
70 -11 0 5 9 9 20 10 14 1 20 -4 20 -18 0 -26 -25 -35 -58 -19 -74 33 -96 46
-100 58 -3 11 0 11 19 0 13 -7 26 -16 29 -20z m-115 -8 c38 -10 72 -17 76 -14
15 9 17 -12 3 -31 -14 -18 -14 -18 -43 2 -15 12 -46 26 -67 32 -47 13 -78 31
-54 31 8 -1 46 -9 85 -20z m265 -2 c0 -13 -23 -5 -28 10 -2 7 2 10 12 6 9 -3
16 -11 16 -16z m510 -39 c25 -12 57 -22 72 -23 16 -1 28 -7 28 -13 0 -7 11
-15 25 -19 14 -3 25 -10 25 -14 0 -4 12 -13 28 -18 15 -6 38 -20 52 -31 51
-41 9 -30 -101 26 -63 32 -142 70 -176 85 -35 14 -63 31 -63 37 0 12 47 -1
110 -30z m1446 31 c19 0 34 -4 34 -10 0 -11 -51 -13 -99 -4 -17 4 -31 11 -31
17 0 5 13 7 31 3 17 -3 47 -6 65 -6z m185 -13 c-1 -8 -1 -8 -31 0 -11 3 -17 9
-15 14 6 9 47 -3 46 -14z m-2464 -23 c-7 -7 -37 7 -37 17 0 6 9 5 21 -1 11 -7
19 -14 16 -16z m2338 -8 c28 -13 23 -14 -67 -15 -138 -1 -128 20 12 27 14 1
39 -5 55 -12z m-2395 -16 c0 -5 -2 -10 -4 -10 -3 0 -8 5 -11 10 -3 6 -1 10 4
10 6 0 11 -4 11 -10z m499 -47 c30 -9 50 -18 44 -20 -16 -6 -135 25 -147 38
-13 13 16 9 103 -18z m1395 18 c3 -4 3 -11 0 -14 -8 -8 -34 3 -34 14 0 11 27
12 34 0z m-954 -11 c0 -5 -2 -10 -4 -10 -3 0 -8 5 -11 10 -3 6 -1 10 4 10 6 0
11 -4 11 -10z m433 -27 c-7 -2 -19 -2 -25 0 -7 3 -2 5 12 5 14 0 19 -2 13 -5z
m-725 -31 c37 -24 18 -25 -27 -1 -22 11 -41 22 -41 24 0 7 46 -9 68 -23z m792
8 c0 -5 4 -9 9 -7 5 1 8 -2 8 -8 -3 -14 -30 -16 -39 -2 -3 6 -4 15 -2 19 7 11
24 10 24 -2z m-400 -4 c0 -2 -7 -6 -15 -10 -8 -3 -15 -1 -15 4 0 6 7 10 15 10
8 0 15 -2 15 -4z m150 -56 c0 -14 -14 -12 -28 2 -19 19 -14 30 8 18 11 -6 20
-15 20 -20z m-1155 -10 c16 -18 16 -20 2 -20 -9 0 -21 9 -27 20 -6 11 -7 20
-2 20 5 0 17 -9 27 -20z m95 -11 c6 -10 7 -19 2 -19 -5 0 -14 12 -20 26 -14
29 2 24 18 -7z m345 -39 c-5 -8 -11 -8 -21 1 -12 10 -12 14 -2 20 16 10 33 -5
23 -21z m400 -31 c32 -31 -8 -25 -42 7 l-28 25 25 -6 c14 -4 34 -16 45 -26z
m1021 4 c-7 -7 -26 7 -26 19 0 6 6 6 15 -2 9 -7 13 -15 11 -17z m48 -9 c13 -5
14 -9 5 -20 -6 -8 -8 -14 -3 -14 11 0 -18 -20 -28 -20 -5 0 -8 14 -8 30 0 31
6 35 34 24z m305 -14 c36 -11 67 -17 70 -15 2 3 9 1 15 -3 6 -5 30 -14 54 -22
24 -7 42 -19 42 -28 0 -10 -6 -12 -17 -7 -10 4 -27 9 -38 12 -55 12 -156 47
-161 54 -3 5 -14 9 -25 9 -10 0 -19 5 -19 10 0 13 5 13 79 -10z m226 -60 c3
-5 1 -10 -4 -10 -6 0 -11 5 -11 10 0 6 2 10 4 10 3 0 8 -4 11 -10z m-310 -110
c3 -5 -1 -10 -9 -10 -8 0 -18 5 -21 10 -3 6 1 10 9 10 8 0 18 -4 21 -10z m105
-34 c-6 -6 -18 -5 -32 1 -21 10 -21 10 9 9 19 -1 28 -5 23 -10z m940 -216 c0
-5 -4 -10 -10 -10 -5 0 -10 5 -10 10 0 6 5 10 10 10 6 0 10 -4 10 -10z m123
-31 c-6 -6 -9 -18 -6 -25 4 -10 0 -12 -11 -8 -14 5 -14 8 1 30 9 14 18 22 21
19 3 -3 1 -10 -5 -16z m-701 -11 c-11 -11 -32 -3 -32 12 0 4 9 6 21 3 13 -4
17 -9 11 -15z m-3802 2 c0 -5 -4 -10 -10 -10 -5 0 -10 5 -10 10 0 6 5 10 10
10 6 0 10 -4 10 -10z m3570 -30 c0 -5 -2 -10 -4 -10 -2 0 -12 -3 -22 -7 -16
-6 -17 -5 -4 10 17 19 30 22 30 7z m1020 6 c0 -3 -4 -8 -10 -11 -5 -3 -10 -1
-10 4 0 6 5 11 10 11 6 0 10 -2 10 -4z m-955 -43 c18 -14 18 -15 2 -9 -10 3
-23 6 -28 6 -5 0 -9 5 -9 10 0 14 12 12 35 -7z m990 -3 c3 -5 -1 -10 -10 -10
-9 0 -13 5 -10 10 3 6 8 10 10 10 2 0 7 -4 10 -10z m50 -30 c3 -5 -1 -10 -9
-10 -9 0 -16 5 -16 10 0 6 4 10 9 10 6 0 13 -4 16 -10z m-605 -80 c0 -5 17
-10 38 -11 35 -1 93 -14 82 -19 -3 -2 -33 -4 -67 -6 -62 -3 -93 11 -78 36 8
13 25 13 25 0z m-254 -24 c29 -22 13 -26 -21 -5 -17 11 -23 19 -14 19 8 0 24
-6 35 -14z m184 10 c0 -3 -4 -8 -10 -11 -5 -3 -10 -1 -10 4 0 6 5 11 10 11 6
0 10 -2 10 -4z m-55 -76 c3 -5 -1 -10 -9 -10 -9 0 -16 5 -16 10 0 6 4 10 9 10
6 0 13 -4 16 -10z m245 6 c0 -3 -4 -8 -10 -11 -5 -3 -10 -1 -10 4 0 6 5 11 10
11 6 0 10 -2 10 -4z m230 -22 c0 -8 -5 -12 -10 -9 -6 4 -8 11 -5 16 9 14 15
11 15 -7z m33 -30 c-5 -13 -2 -15 16 -9 17 5 27 1 38 -15 8 -12 21 -19 28 -16
8 3 19 -2 25 -10 7 -8 21 -14 32 -14 11 0 41 -17 67 -38 25 -22 59 -42 74 -46
19 -5 32 -16 39 -36 5 -17 14 -30 19 -30 5 0 11 0 14 0 3 0 13 -8 23 -17 64
-62 130 -105 146 -96 6 3 8 3 4 -2 -7 -8 41 -47 79 -64 17 -8 21 -17 18 -41
-2 -17 0 -28 5 -25 13 8 62 -36 56 -51 -3 -8 -2 -14 3 -14 9 0 34 -51 27 -57
-2 -2 -29 12 -59 32 -49 33 -88 40 -71 14 3 -5 9 -7 14 -4 4 3 18 -9 31 -26
13 -17 30 -37 38 -45 7 -8 10 -18 7 -22 -4 -3 -11 0 -15 7 -5 8 -14 10 -21 6
-9 -5 -11 -4 -6 3 4 7 1 12 -8 12 -9 0 -16 5 -16 10 0 6 -16 20 -35 31 -19 12
-35 27 -35 35 0 17 -46 48 -59 40 -6 -4 -15 3 -21 15 -9 17 -18 20 -41 15 -21
-4 -29 -2 -29 8 0 8 -9 16 -20 19 -11 3 -20 14 -20 25 0 11 -8 22 -17 26 -41
14 -99 53 -95 64 2 7 -3 12 -11 12 -8 0 -17 7 -21 15 -3 8 -12 15 -21 15 -8 0
-15 8 -15 19 0 18 -65 71 -87 71 -6 0 -16 7 -23 15 -7 8 -16 12 -21 10 -4 -3
-13 4 -19 15 -6 11 -15 18 -21 15 -5 -4 -9 3 -9 14 0 18 3 19 26 11 14 -6 42
-22 62 -38 20 -15 33 -21 28 -14 -4 6 -2 12 3 12 10 0 15 -14 12 -32 -2 -11
22 -9 39 3 12 8 12 12 2 16 -10 4 -10 8 0 21 11 13 10 15 -4 9 -10 -3 -18 -2
-18 3 0 14 -27 12 -34 -2 -4 -10 -7 -9 -15 2 -29 42 -32 45 -38 33 -3 -10 -8
-9 -20 2 -11 12 -12 19 -4 29 9 11 5 16 -19 26 -39 16 -40 36 -3 49 1 1 0 -6
-4 -15z m-4443 -18 c0 -3 -4 -8 -10 -11 -5 -3 -10 -1 -10 4 0 6 5 11 10 11 6
0 10 -2 10 -4z m205 -86 c3 -5 1 -10 -4 -10 -6 0 -11 5 -11 10 0 6 2 10 4 10
3 0 8 -4 11 -10z m3695 -51 c0 -14 -17 -10 -23 5 -4 10 -1 13 9 9 7 -3 14 -9
14 -14z m-3613 -15 c-3 -3 -12 -4 -19 -1 -8 3 -5 6 6 6 11 1 17 -2 13 -5z
m3843 -30 c25 -13 34 -14 40 -4 5 9 9 9 14 1 4 -6 19 -11 33 -11 20 0 24 -4
20 -20 -6 -24 -1 -25 20 -5 14 14 17 14 35 -2 17 -16 18 -18 4 -21 -22 -5 -20
-17 7 -35 12 -8 19 -18 16 -21 -3 -3 -23 7 -44 24 -21 17 -50 30 -65 30 -15 0
-33 6 -39 14 -7 8 -24 17 -39 21 -25 6 -42 21 -42 38 0 10 2 9 40 -9z m267
-14 c16 0 48 -28 40 -36 -5 -6 -43 13 -64 32 -6 7 -9 15 -5 18 4 4 8 2 10 -3
2 -6 10 -11 19 -11z m-4067 -25 c0 -8 -4 -15 -10 -15 -5 0 -7 7 -4 15 4 8 8
15 10 15 2 0 4 -7 4 -15z m4220 0 c10 -12 10 -15 -4 -15 -9 0 -16 7 -16 15 0
8 2 15 4 15 2 0 9 -7 16 -15z m-503 -14 c29 -10 65 -28 82 -40 16 -12 39 -20
51 -19 33 4 36 -20 5 -28 l-26 -6 20 -22 c11 -12 54 -39 96 -61 41 -21 75 -44
75 -52 0 -17 17 -17 24 0 3 6 4 3 3 -7 -1 -13 8 -23 33 -32 19 -7 31 -13 27
-13 -14 -2 13 -41 28 -41 7 0 27 -11 43 -25 17 -14 33 -25 37 -25 3 0 27 -14
51 -31 41 -28 44 -32 28 -43 -23 -17 -2 -30 33 -21 22 5 24 4 15 -8 -13 -15
-10 -19 58 -79 30 -26 32 -30 12 -25 -16 4 -25 0 -29 -10 -5 -13 -7 -13 -16 2
-8 14 -11 15 -18 4 -6 -11 -9 -9 -9 7 0 23 -24 39 -42 27 -7 -3 -8 -1 -4 5 4
7 -2 16 -16 21 -159 64 -202 80 -205 77 -8 -7 48 -56 71 -62 14 -3 26 -11 26
-16 0 -6 15 -8 33 -6 31 3 33 2 29 -27 -2 -21 -1 -26 6 -16 16 23 72 -7 71
-39 l0 -25 -11 25 c-6 15 -12 20 -15 13 -3 -7 -9 -13 -14 -13 -5 0 -8 6 -6 13
1 7 -7 11 -18 10 -25 -2 -95 18 -95 27 0 4 -11 5 -25 2 -20 -3 -24 -1 -19 11
8 21 -53 76 -86 78 -20 1 -18 3 10 9 19 4 28 8 20 9 -8 1 -30 16 -48 35 -34
36 -86 52 -125 40 -12 -3 -19 -3 -15 1 5 5 -1 14 -11 22 -16 11 -17 17 -8 38
7 14 19 25 27 25 11 0 11 -3 2 -12 -16 -16 -15 -28 3 -28 8 0 15 5 15 10 0 6
11 8 27 4 26 -7 35 -13 67 -41 16 -14 92 -33 100 -26 9 9 -53 54 -77 57 -32 3
-49 16 -43 32 3 9 -4 16 -22 20 -32 8 -77 44 -77 61 0 14 -71 53 -97 53 -9 0
-20 5 -23 10 -3 6 -15 10 -26 10 -10 0 -19 5 -19 10 0 6 4 10 10 10 5 0 6 8 3
17 -5 12 -2 15 10 10 21 -8 23 18 4 38 -9 9 -19 10 -31 3 -20 -11 -77 -1 -58
11 6 4 14 18 16 31 6 30 5 30 9 30 1 0 26 -9 54 -19z m363 -10 c0 -13 58 -19
70 -7 7 7 10 5 10 -7 0 -10 -8 -17 -19 -17 -11 0 -26 -2 -34 -6 -8 -3 -21 5
-31 20 -9 15 -12 26 -6 26 5 0 10 -4 10 -9z m-4080 -41 c-1 -12 -3 -11 -11 3
-7 12 -17 16 -30 12 -10 -4 -19 -2 -19 4 0 13 43 19 52 6 4 -5 8 -17 8 -25z
m196 -37 c-7 -7 -26 7 -26 19 0 6 6 6 15 -2 9 -7 13 -15 11 -17z m3450 -4 c9
-15 -23 -10 -35 5 -10 12 -8 13 9 9 11 -3 23 -9 26 -14z m274 1 c6 -11 17 -20
24 -20 8 0 19 -7 26 -14 14 -18 107 -47 126 -39 10 4 12 0 7 -13 -6 -17 -5
-17 10 -5 14 11 18 11 23 -3 4 -10 13 -14 24 -11 13 4 17 -1 17 -25 0 -26 -3
-29 -21 -24 -12 4 -28 13 -37 20 -8 8 -23 14 -32 14 -9 0 -17 5 -17 10 0 6 -7
10 -15 10 -8 0 -15 4 -15 9 0 5 -13 11 -28 14 -38 8 -101 48 -102 66 0 7 -6
11 -14 8 -10 -4 -13 -1 -9 9 7 20 20 18 33 -6z m-3767 3 c3 -5 -17 -8 -44 -8
-27 0 -49 3 -49 7 0 10 87 10 93 1z m123 -15 c5 -7 2 -9 -7 -6 -8 3 -23 0 -34
-8 -10 -8 -24 -14 -29 -14 -6 0 3 9 19 20 35 23 41 24 51 8z m3772 -6 l23 -18
-23 -1 c-38 -2 -68 7 -68 20 0 19 42 18 68 -1z m252 -2 c0 -5 -7 -10 -15 -10
-8 0 -15 5 -15 10 0 6 7 10 15 10 8 0 15 -4 15 -10z m-4134 -16 c-7 -7 -15 -9
-20 -3 -18 16 -66 11 -66 -8 0 -12 -3 -14 -11 -6 -21 21 2 33 56 32 42 -2 51
-5 41 -15z m3483 -13 c7 -5 12 -13 10 -18 -2 -5 -12 -1 -21 9 -19 19 -13 24
11 9z m721 -7 c0 -8 -5 -12 -10 -9 -6 4 -8 11 -5 16 9 14 15 11 15 -7z m-874
-29 c10 -8 15 -14 9 -14 -5 0 -19 6 -29 14 -11 8 -15 15 -10 15 6 0 19 -7 30
-15z m-3116 -17 c0 -13 -23 -5 -28 10 -2 7 2 10 12 6 9 -3 16 -11 16 -16z
m3345 -8 c3 -5 2 -10 -4 -10 -5 0 -13 5 -16 10 -3 6 -2 10 4 10 5 0 13 -4 16
-10z m490 -40 c3 -5 1 -10 -4 -10 -6 0 -11 5 -11 10 0 6 2 10 4 10 3 0 8 -4
11 -10z m225 -90 c0 -5 -2 -10 -4 -10 -3 0 -8 5 -11 10 -3 6 -1 10 4 10 6 0
11 -4 11 -10z m-4560 -51 c0 -4 -9 -9 -20 -12 -12 -3 -20 0 -20 7 0 6 9 12 20
12 11 0 20 -3 20 -7z m4038 -27 c2 -7 -2 -10 -12 -6 -9 3 -16 11 -16 16 0 13
23 5 28 -10z m-4028 -6 c0 -3 -4 -8 -10 -11 -5 -3 -10 -1 -10 4 0 6 5 11 10
11 6 0 10 -2 10 -4z m4057 -15 c-7 -30 19 -59 84 -91 56 -29 67 -39 53 -53 -7
-7 -73 25 -117 55 -35 25 -51 62 -37 89 14 25 24 25 17 0z m208 -192 c11 -17
-1 -21 -15 -4 -8 9 -8 15 -2 15 6 0 14 -5 17 -11z m197 0 c3 -8 10 -8 26 2 20
12 24 12 32 -1 5 -8 10 -18 10 -22 0 -8 -40 -32 -43 -26 -1 2 -13 15 -26 31
-14 15 -20 27 -14 27 6 0 13 -5 15 -11z m-518 -35 c3 -8 2 -12 -4 -9 -6 3 -10
10 -10 16 0 14 7 11 14 -7z m636 -14 c0 -5 -4 -10 -10 -10 -5 0 -10 5 -10 10
0 6 5 10 10 10 6 0 10 -4 10 -10z m85 -9 c7 -12 -12 -24 -25 -16 -11 7 -4 25
10 25 5 0 11 -4 15 -9z m-1474 -48 c-8 -15 -10 -15 -11 -2 0 17 10 32 18 25 2
-3 -1 -13 -7 -23z m176 5 c-3 -8 -6 -5 -6 6 -1 11 2 17 5 13 3 -3 4 -12 1 -19z
m1341 3 c3 -8 -1 -12 -9 -9 -7 2 -15 10 -17 17 -3 8 1 12 9 9 7 -2 15 -10 17
-17z m-1666 -8 c22 -20 23 -33 3 -33 -12 0 -35 28 -35 44 0 11 13 6 32 -11z
m196 -1 c7 -5 10 -16 6 -25 -4 -12 -1 -17 13 -17 11 0 28 -7 39 -15 18 -13 16
-14 -23 -12 -27 1 -43 7 -43 15 0 6 -5 12 -11 12 -8 0 -8 5 1 15 9 10 9 15 1
15 -6 0 -11 5 -11 10 0 12 10 13 28 2z m182 -12 c0 -5 -5 -10 -11 -10 -5 0 -7
5 -4 10 3 6 8 10 11 10 2 0 4 -4 4 -10z m738 -68 c2 -7 -2 -10 -12 -6 -9 3
-16 11 -16 16 0 13 23 5 28 -10z m432 -63 c0 -6 -4 -7 -10 -4 -5 3 -10 11 -10
16 0 6 5 7 10 4 6 -3 10 -11 10 -16z m-4280 -89 c0 -5 -5 -10 -11 -10 -5 0 -7
5 -4 10 3 6 8 10 11 10 2 0 4 -4 4 -10z m3650 -85 c0 -13 6 -25 13 -28 6 -2 9
-8 4 -12 -4 -5 -12 -4 -19 3 -13 13 -20 74 -7 66 5 -3 9 -16 9 -29z m-79 -150
c1 -17 -18 -17 -25 0 -4 11 -1 15 10 13 8 -2 15 -7 15 -13z m-376 -23 c-3 -3
-11 0 -18 7 -9 10 -8 11 6 5 10 -3 15 -9 12 -12z m689 -83 c-6 -11 -24 -2 -24
11 0 5 7 7 15 4 8 -4 12 -10 9 -15z m-964 -59 c0 -5 -4 -12 -10 -15 -5 -3 -10
-1 -10 5 0 7 -9 9 -22 5 -22 -7 -22 -7 -3 8 19 15 45 13 45 -3z m70 0 c0 -5
-5 -10 -11 -10 -5 0 -7 5 -4 10 3 6 8 10 11 10 2 0 4 -4 4 -10z m40 -25 c0
-29 -6 -31 -26 -10 -17 16 -11 35 12 35 8 0 14 -10 14 -25z m37 4 c-4 -14 1
-23 16 -29 21 -8 21 -9 -5 -9 -27 -1 -46 27 -33 49 11 18 27 10 22 -11z m-225
3 c2 -4 20 -21 40 -36 32 -24 39 -26 44 -12 5 14 9 14 32 -4 19 -15 34 -19 61
-14 25 4 32 2 22 -4 -11 -8 -9 -12 9 -22 20 -10 21 -10 16 7 -7 23 20 28 28 6
9 -23 -5 -43 -36 -51 l-29 -7 24 -29 c14 -16 30 -25 36 -22 6 4 11 0 11 -9 0
-11 5 -15 15 -11 8 3 15 1 15 -4 0 -5 7 -7 16 -3 9 3 20 0 25 -8 13 -21 11
-26 -11 -32 -11 -3 -20 -1 -20 3 0 10 -56 32 -88 34 -21 2 -82 60 -82 79 0 7
-42 27 -67 31 -7 1 -20 11 -28 22 -8 10 -15 15 -15 10 0 -21 -40 39 -40 61 0
22 14 32 22 15z m708 -103 c0 -4 -7 -6 -15 -3 -8 4 -15 10 -15 15 0 4 7 6 15
3 8 -4 15 -10 15 -15z m-725 2 c-3 -6 3 -10 12 -10 45 -1 56 -6 61 -23 2 -10
9 -18 14 -18 5 0 7 4 4 9 -3 4 6 6 19 3 21 -4 24 -9 20 -38 -3 -25 -1 -32 10
-28 15 6 29 -11 20 -26 -8 -13 -74 21 -106 54 -13 14 -29 26 -35 26 -7 0 -14
7 -18 15 -3 8 -12 15 -21 15 -8 0 -15 7 -15 15 0 8 9 15 21 15 11 0 18 -4 14
-9z m305 -1 c-9 -6 -10 -10 -3 -10 6 0 20 -3 30 -6 13 -4 15 -3 4 4 -9 7 -10
11 -2 17 17 10 41 -13 41 -39 0 -17 2 -18 10 -6 7 12 12 12 29 -4 12 -11 21
-25 21 -32 0 -7 7 -17 17 -22 10 -6 14 -16 9 -27 -5 -14 -9 -15 -21 -5 -8 7
-15 20 -15 30 0 16 -16 25 -73 44 -10 3 -15 11 -11 17 4 8 -1 9 -16 4 -15 -5
-25 -2 -31 6 -14 22 -10 39 9 39 14 0 15 -2 2 -10z m490 -84 c0 -3 -4 -8 -10
-11 -5 -3 -10 -1 -10 4 0 6 5 11 10 11 6 0 10 -2 10 -4z m-2633 -82 c-3 -3
-12 -4 -19 -1 -8 3 -5 6 6 6 11 1 17 -2 13 -5z m2310 -19 c39 -20 58 -41 43
-50 -5 -3 -10 -2 -10 3 0 5 -18 17 -40 27 -23 10 -43 22 -46 27 -8 13 20 9 53
-7z m-2917 -49 c0 -3 -4 -8 -10 -11 -5 -3 -10 -1 -10 4 0 6 5 11 10 11 6 0 10
-2 10 -4z m703 -13 c-7 -2 -19 -2 -25 0 -7 3 -2 5 12 5 14 0 19 -2 13 -5z
m-393 -13 c0 -5 -5 -10 -11 -10 -5 0 -7 5 -4 10 3 6 8 10 11 10 2 0 4 -4 4
-10z m408 -107 c-1 -23 1 -45 5 -49 10 -10 9 -64 -1 -64 -5 0 -18 13 -29 29
-22 29 -24 55 -8 134 7 34 5 37 -16 38 -20 1 -19 2 6 8 27 6 31 4 37 -24 5
-16 7 -49 6 -72z m879 11 c-9 -9 -28 6 -21 18 4 6 10 6 17 -1 6 -6 8 -13 4
-17z m49 -66 c1 -31 -13 -38 -23 -10 -4 9 -13 22 -21 28 -23 17 -7 34 21 21
15 -7 22 -20 23 -39z m-476 12 c0 -5 -4 -10 -10 -10 -5 0 -10 5 -10 10 0 6 5
10 10 10 6 0 10 -4 10 -10z m-170 -57 c0 -7 5 -13 10 -13 6 0 10 -7 10 -15 0
-8 5 -15 11 -15 6 0 9 7 5 15 -3 8 -1 15 4 15 6 0 10 -11 10 -25 0 -18 4 -23
15 -19 20 8 19 -13 -1 -33 -14 -14 -17 -14 -30 6 -9 12 -21 26 -27 32 -7 5
-22 18 -35 28 -14 12 -19 22 -12 26 5 3 7 18 4 33 l-6 27 21 -25 c11 -14 21
-31 21 -37z m114 31 c10 -9 24 -13 36 -9 11 4 20 2 20 -4 0 -6 -6 -11 -12 -11
-9 0 -9 -3 1 -9 8 -5 20 -7 28 -4 7 3 13 0 13 -7 0 -7 -8 -10 -20 -7 -15 4
-20 0 -20 -14 0 -20 15 -26 25 -9 9 15 25 2 25 -19 0 -10 7 -24 15 -31 8 -7
13 -16 10 -20 -8 -13 -55 13 -55 30 0 13 -1 13 -10 0 -9 -13 -11 -13 -20 0 -5
8 -8 20 -5 27 2 7 0 15 -5 18 -6 4 -10 1 -10 -4 0 -6 -4 -11 -10 -11 -5 0 -10
9 -10 20 0 11 -5 20 -11 20 -6 0 -8 9 -4 20 5 15 3 18 -9 14 -12 -5 -15 -2
-10 10 8 20 18 20 38 0z m991 6 c3 -5 1 -10 -4 -10 -6 0 -11 5 -11 10 0 6 2
10 4 10 3 0 8 -4 11 -10z m-397 -19 c-4 -19 -22 -18 -26 2 -2 7 4 14 13 14 9
0 15 -7 13 -16z m-33 -31 c3 -5 1 -10 -4 -10 -6 0 -11 5 -11 10 0 6 2 10 4 10
3 0 8 -4 11 -10z m62 -6 c-3 -3 -12 -4 -19 -1 -8 3 -5 6 6 6 11 1 17 -2 13 -5z
m-1062 -24 c3 -5 -1 -10 -9 -10 -8 0 -18 5 -21 10 -3 6 1 10 9 10 8 0 18 -4
21 -10z m1560 -58 c-3 -3 -11 0 -18 7 -9 10 -8 11 6 5 10 -3 15 -9 12 -12z
m-1156 -26 c-2 -19 0 -38 4 -42 10 -10 9 -42 -2 -49 -27 -16 -46 81 -22 107
22 23 23 23 20 -16z m81 -18 c0 -5 -9 -4 -20 2 -11 6 -20 18 -20 27 0 14 2 14
20 -2 11 -10 20 -22 20 -27z m-50 -129 c0 -11 -4 -17 -10 -14 -5 3 -10 15 -10
26 0 11 5 17 10 14 6 -3 10 -15 10 -26z m-93 -131 c-3 -7 -5 -2 -5 12 0 14 2
19 5 13 2 -7 2 -19 0 -25z"/>
<path d="M6860 4930 c0 -5 5 -10 11 -10 5 0 7 5 4 10 -3 6 -8 10 -11 10 -2 0
-4 -4 -4 -10z"/>
<path d="M7080 2411 c0 -6 5 -13 10 -16 6 -3 10 1 10 9 0 9 -4 16 -10 16 -5 0
-10 -4 -10 -9z"/>
<path d="M6318 2393 c7 -3 16 -2 19 1 4 3 -2 6 -13 5 -11 0 -14 -3 -6 -6z"/>
<path d="M6650 2330 c0 -6 7 -10 15 -10 8 0 15 2 15 4 0 2 -7 6 -15 10 -8 3
-15 1 -15 -4z"/>
<path d="M5775 890 c-3 -5 -1 -10 4 -10 6 0 11 5 11 10 0 6 -2 10 -4 10 -3 0
-8 -4 -11 -10z"/>
<path d="M1350 6460 c0 -5 7 -10 16 -10 8 0 12 5 9 10 -3 6 -10 10 -16 10 -5
0 -9 -4 -9 -10z"/>
<path d="M1314 6426 c-23 -18 -19 -22 29 -31 40 -8 49 4 23 31 -18 18 -27 18
-52 0z"/>
<path d="M6168 6413 c7 -3 16 -2 19 1 4 3 -2 6 -13 5 -11 0 -14 -3 -6 -6z"/>
<path d="M6690 6241 c-14 -5 -50 -6 -80 -5 -49 4 -51 3 -25 -7 43 -15 110 -12
142 5 23 12 24 15 8 15 -11 -1 -31 -4 -45 -8z"/>
<path d="M6710 6190 c0 -5 5 -10 10 -10 6 0 10 5 10 10 0 6 -4 10 -10 10 -5 0
-10 -4 -10 -10z"/>
<path d="M6408 6003 c7 -3 16 -2 19 1 4 3 -2 6 -13 5 -11 0 -14 -3 -6 -6z"/>
<path d="M6740 5980 c0 -5 7 -10 15 -10 8 0 15 5 15 10 0 6 -7 10 -15 10 -8 0
-15 -4 -15 -10z"/>
<path d="M6710 5930 c0 -6 7 -10 15 -10 8 0 15 2 15 4 0 2 -7 6 -15 10 -8 3
-15 1 -15 -4z"/>
<path d="M6080 5850 c0 -5 9 -10 19 -10 11 0 23 -5 26 -10 4 -6 11 -8 16 -4
13 8 -20 33 -43 34 -10 0 -18 -4 -18 -10z"/>
<path d="M3916 5795 c-9 -26 -7 -32 5 -12 6 10 9 21 6 23 -2 3 -7 -2 -11 -11z"/>
<path d="M5380 5744 c49 -38 143 -66 137 -42 -1 7 12 12 31 14 17 1 32 -2 32
-7 0 -5 5 -9 10 -9 6 0 10 6 10 14 0 17 -81 37 -91 23 -4 -5 -12 -6 -19 -2 -7
4 -29 9 -49 10 -20 1 -47 6 -61 10 l-25 8 25 -19z"/>
<path d="M5308 5743 c7 -3 16 -2 19 1 4 3 -2 6 -13 5 -11 0 -14 -3 -6 -6z"/>
<path d="M6130 5730 c0 -5 7 -10 16 -10 8 0 12 5 9 10 -3 6 -10 10 -16 10 -5
0 -9 -4 -9 -10z"/>
<path d="M6400 5722 c0 -4 20 -12 45 -18 54 -12 61 1 8 15 -46 13 -53 13 -53
3z"/>
<path d="M6218 5713 c7 -3 16 -2 19 1 4 3 -2 6 -13 5 -11 0 -14 -3 -6 -6z"/>
<path d="M6675 5710 c-3 -5 1 -10 9 -10 8 0 18 5 21 10 3 6 -1 10 -9 10 -8 0
-18 -4 -21 -10z"/>
<path d="M1090 5670 c-8 -5 -12 -11 -10 -14 3 -2 14 2 24 10 22 15 10 19 -14
4z"/>
<path d="M6550 5635 c0 -9 9 -15 23 -14 17 1 18 2 4 6 -9 2 -15 9 -12 14 4 5
1 9 -4 9 -6 0 -11 -7 -11 -15z"/>
<path d="M5680 5619 c0 -5 5 -7 10 -4 6 3 10 8 10 11 0 2 -4 4 -10 4 -5 0 -10
-5 -10 -11z"/>
<path d="M5802 5621 c2 -7 7 -12 11 -12 12 1 9 15 -3 20 -7 2 -11 -2 -8 -8z"/>
<path d="M6345 5610 c3 -5 8 -10 11 -10 2 0 4 5 4 10 0 6 -5 10 -11 10 -5 0
-7 -4 -4 -10z"/>
<path d="M6607 5599 c7 -7 15 -10 18 -7 3 3 -2 9 -12 12 -14 6 -15 5 -6 -5z"/>
<path d="M6648 5583 c7 -3 16 -2 19 1 4 3 -2 6 -13 5 -11 0 -14 -3 -6 -6z"/>
<path d="M7185 5500 c3 -5 14 -10 23 -10 15 0 15 2 2 10 -20 13 -33 13 -25 0z"/>
<path d="M6785 5491 c-3 -5 4 -13 16 -16 28 -9 36 1 10 14 -12 7 -22 7 -26 2z"/>
<path d="M2930 5470 c0 -5 5 -10 10 -10 6 0 10 5 10 10 0 6 -4 10 -10 10 -5 0
-10 -4 -10 -10z"/>
<path d="M7195 5451 c-6 -11 15 -61 27 -61 15 0 8 38 -8 44 -8 3 -12 10 -9 16
3 5 4 10 1 10 -3 0 -7 -4 -11 -9z"/>
<path d="M7030 5394 c0 -26 10 -30 28 -12 17 17 15 25 -8 31 -16 4 -20 0 -20
-19z"/>
<path d="M6085 5390 c3 -5 8 -10 11 -10 2 0 4 5 4 10 0 6 -5 10 -11 10 -5 0
-7 -4 -4 -10z"/>
<path d="M6520 5390 c0 -5 5 -10 11 -10 5 0 7 5 4 10 -3 6 -8 10 -11 10 -2 0
-4 -4 -4 -10z"/>
<path d="M6125 5380 c-3 -5 3 -10 15 -10 12 0 18 5 15 10 -3 6 -10 10 -15 10
-5 0 -12 -4 -15 -10z"/>
<path d="M6371 5351 c13 -11 26 -18 28 -16 6 6 -27 35 -39 35 -7 0 -2 -9 11
-19z"/>
<path d="M2548 5353 c6 -2 18 -2 25 0 6 3 1 5 -13 5 -14 0 -19 -2 -12 -5z"/>
<path d="M6150 5343 c0 -5 9 -18 18 -31 16 -20 20 -21 30 -9 10 12 8 18 -12
31 -28 18 -36 20 -36 9z"/>
<path d="M6214 5279 c-5 -9 -2 -10 9 -6 11 4 17 -2 22 -24 8 -34 16 -36 32
-10 9 15 9 21 0 29 -22 18 -55 23 -63 11z"/>
<path d="M2935 5174 c0 -28 15 -27 25 2 6 15 3 20 -9 21 -11 1 -16 -7 -16 -23z"/>
<path d="M3170 5074 c0 -8 5 -12 10 -9 6 3 10 10 10 16 0 5 -4 9 -10 9 -5 0
-10 -7 -10 -16z"/>
<path d="M2831 4974 c0 -11 3 -14 6 -6 3 7 2 16 -1 19 -3 4 -6 -2 -5 -13z"/>
<path d="M4350 4420 c0 -5 7 -10 16 -10 8 0 12 5 9 10 -3 6 -10 10 -16 10 -5
0 -9 -4 -9 -10z"/>
<path d="M3843 4110 c-1 -16 2 -20 18 -15 14 5 17 3 13 -9 -4 -10 -1 -16 9
-16 8 0 29 -3 47 -6 30 -7 32 -6 25 17 -10 34 -33 49 -75 49 -29 0 -36 -4 -37
-20z"/>
<path d="M4075 4010 c-16 -7 -17 -9 -3 -9 9 -1 20 4 23 9 7 11 7 11 -20 0z"/>
<path d="M5470 3956 c0 -2 7 -6 15 -10 8 -3 15 -1 15 4 0 6 -7 10 -15 10 -8 0
-15 -2 -15 -4z"/>
<path d="M5370 3940 c0 -5 7 -10 15 -10 8 0 15 5 15 10 0 6 -7 10 -15 10 -8 0
-15 -4 -15 -10z"/>
<path d="M4866 3901 c-4 -7 -5 -15 -2 -18 9 -9 19 4 14 18 -4 11 -6 11 -12 0z"/>
<path d="M4732 3895 c9 -10 98 -14 98 -4 0 5 -23 9 -52 9 -28 0 -49 -2 -46 -5z"/>
<path d="M4905 3890 c3 -5 11 -10 16 -10 6 0 7 5 4 10 -3 6 -11 10 -16 10 -6
0 -7 -4 -4 -10z"/>
<path d="M4905 3850 c4 -6 11 -8 16 -5 14 9 11 15 -7 15 -8 0 -12 -5 -9 -10z"/>
<path d="M4686 3831 c-4 -7 5 -10 28 -9 19 1 42 -4 50 -11 8 -7 30 -11 48 -9
l33 4 -40 12 c-65 20 -112 25 -119 13z"/>
<path d="M5075 3810 c3 -5 8 -10 11 -10 2 0 4 5 4 10 0 6 -5 10 -11 10 -5 0
-7 -4 -4 -10z"/>
<path d="M5101 3791 c-8 -5 -9 -11 -3 -15 13 -8 42 3 42 15 0 11 -21 11 -39 0z"/>
<path d="M1920 2774 c0 -8 5 -12 10 -9 6 4 8 11 5 16 -9 14 -15 11 -15 -7z"/>
<path d="M1874 2764 c3 -9 6 -18 6 -20 0 -13 19 -1 23 16 4 15 0 20 -15 20
-14 0 -18 -5 -14 -16z"/>
<path d="M2013 2769 c-18 -5 -33 -13 -33 -18 0 -5 -10 -11 -22 -14 -12 -4 -19
-9 -16 -13 4 -3 1 -13 -7 -20 -17 -18 -22 -18 -22 1 0 8 5 11 11 8 6 -3 8 -3
4 2 -11 11 -67 14 -74 4 -3 -5 -11 -6 -17 -2 -7 4 -6 -1 2 -10 9 -11 21 -15
34 -11 14 4 18 2 14 -7 -5 -15 -8 -15 -47 -5 -25 7 -25 7 -5 -11 30 -26 39
-55 17 -51 -12 2 -18 -5 -20 -27 -2 -20 0 -26 6 -17 7 10 11 10 22 -3 17 -21
43 -19 65 5 18 20 46 26 59 13 3 -4 15 -8 26 -10 18 -3 25 7 21 30 -3 20 19 4
25 -19 4 -17 11 -23 21 -20 8 3 19 6 24 6 13 0 40 58 30 64 -5 4 -11 1 -13 -6
-2 -6 -10 -8 -17 -4 -9 6 -9 11 -1 21 7 8 9 18 6 23 -3 6 3 12 14 15 11 3 20
10 20 16 0 6 -7 8 -15 5 -8 -4 -15 -1 -15 5 0 15 -30 14 -31 -1 0 -7 -5 -2
-10 12 -7 17 -7 26 0 28 18 6 12 22 -6 21 -10 0 -33 -5 -50 -10z m72 -149 c3
-5 1 -10 -4 -10 -6 0 -11 5 -11 10 0 6 2 10 4 10 3 0 8 -4 11 -10z"/>
<path d="M2138 2756 c-10 -7 -15 -16 -12 -19 4 -3 13 1 21 9 20 19 13 26 -9
10z"/>
<path d="M246 2627 c3 -10 9 -15 12 -12 3 3 0 11 -7 18 -10 9 -11 8 -5 -6z"/>
<path d="M2480 2240 c0 -5 5 -10 10 -10 6 0 10 5 10 10 0 6 -4 10 -10 10 -5 0
-10 -4 -10 -10z"/>
<path d="M6090 1990 c0 -5 7 -10 16 -10 8 0 12 5 9 10 -3 6 -10 10 -16 10 -5
0 -9 -4 -9 -10z"/>
<path d="M6170 1940 c0 -5 7 -10 15 -10 8 0 15 5 15 10 0 6 -7 10 -15 10 -8 0
-15 -4 -15 -10z"/>
<path d="M5936 1831 c-3 -5 12 -16 34 -25 22 -9 57 -33 78 -53 55 -53 98 -81
109 -69 8 8 -62 73 -100 93 -18 9 -34 19 -37 23 -4 6 -69 40 -76 40 -2 0 -5
-4 -8 -9z"/>
<path d="M6270 1802 c0 -5 11 -14 25 -20 20 -9 25 -9 25 2 0 8 -7 17 -16 20
-22 8 -34 8 -34 -2z"/>
<path d="M6174 1697 c3 -10 6 -21 6 -23 0 -2 6 -4 14 -4 8 0 28 -11 44 -25 29
-24 30 -24 35 -5 4 16 -2 24 -30 35 -20 9 -38 13 -41 10 -3 -2 -11 3 -19 13
-14 16 -14 16 -9 -1z"/>
<path d="M6420 1701 c0 -9 30 -24 36 -18 2 1 -6 8 -16 15 -11 7 -20 8 -20 3z"/>
<path d="M5960 1606 c0 -2 9 -6 20 -9 11 -3 20 -1 20 4 0 5 -9 9 -20 9 -11 0
-20 -2 -20 -4z"/>
<path d="M5895 1580 c3 -5 13 -10 21 -10 8 0 12 5 9 10 -3 6 -13 10 -21 10 -8
0 -12 -4 -9 -10z"/>
<path d="M6060 1580 c0 -5 5 -10 11 -10 5 0 7 5 4 10 -3 6 -8 10 -11 10 -2 0
-4 -4 -4 -10z"/>
<path d="M6115 1551 c6 -11 45 -10 45 1 0 4 -12 8 -26 8 -14 0 -23 -4 -19 -9z"/>
<path d="M6548 1553 c7 -3 16 -2 19 1 4 3 -2 6 -13 5 -11 0 -14 -3 -6 -6z"/>
<path d="M5680 1540 c0 -5 5 -10 10 -10 6 0 10 5 10 10 0 6 -4 10 -10 10 -5 0
-10 -4 -10 -10z"/>
<path d="M6390 1524 c0 -8 56 -54 65 -53 5 0 4 3 -2 6 -7 2 -13 10 -13 16 0 7
-11 17 -25 24 -14 6 -25 9 -25 7z"/>
<path d="M6192 1449 c-13 -5 -28 -7 -33 -3 -5 3 -9 -2 -9 -10 0 -19 36 -21 44
-3 5 10 7 10 12 0 8 -18 27 -16 21 1 -3 8 -1 17 6 20 7 3 6 4 -3 5 -8 0 -26
-4 -38 -10z"/>
<path d="M6245 1430 c-3 -5 1 -10 9 -10 9 0 16 5 16 10 0 6 -4 10 -9 10 -6 0
-13 -4 -16 -10z"/>
<path d="M6370 1436 c0 -4 7 -14 15 -22 8 -9 15 -11 15 -6 0 5 -7 15 -15 22
-8 7 -15 9 -15 6z"/>
<path d="M6268 1405 c-6 -6 34 -55 46 -55 3 0 6 11 6 25 0 14 -4 25 -9 25 -5
0 -16 2 -23 5 -8 3 -17 3 -20 0z"/>
<path d="M6330 1350 c0 -5 5 -10 10 -10 6 0 10 5 10 10 0 6 -4 10 -10 10 -5 0
-10 -4 -10 -10z"/>
<path d="M2910 895 c-7 -9 -10 -18 -7 -21 10 -11 37 5 37 21 0 19 -14 19 -30
0z"/>
<path d="M2768 883 c7 -3 16 -2 19 1 4 3 -2 6 -13 5 -11 0 -14 -3 -6 -6z"/>
<path d="M3150 690 c0 -11 5 -20 10 -20 6 0 10 9 10 20 0 11 -4 20 -10 20 -5
0 -10 -9 -10 -20z"/>
<path d="M3112 654 c-19 -20 -4 -38 15 -18 9 9 12 19 7 24 -5 5 -15 2 -22 -6z"/>
<path d="M3610 620 c0 -5 7 -10 15 -10 8 0 15 5 15 10 0 6 -7 10 -15 10 -8 0
-15 -4 -15 -10z"/>
<path d="M3559 608 c0 -2 -2 -15 -3 -31 -1 -20 2 -26 13 -22 8 3 18 0 23 -7 5
-9 8 -6 8 10 0 14 -6 22 -16 22 -10 0 -14 6 -10 15 3 8 1 15 -4 15 -6 0 -10
-1 -11 -2z"/>
<path d="M3327 559 c7 -7 15 -10 18 -7 3 3 -2 9 -12 12 -14 6 -15 5 -6 -5z"/>
<path d="M3827 556 c-3 -8 -2 -18 3 -21 13 -8 24 15 12 27 -6 6 -11 4 -15 -6z"/>
<path d="M3295 550 c3 -5 8 -10 11 -10 2 0 4 5 4 10 0 6 -5 10 -11 10 -5 0 -7
-4 -4 -10z"/>
<path d="M3310 509 c0 -5 5 -7 10 -4 6 3 10 8 10 11 0 2 -4 4 -10 4 -5 0 -10
-5 -10 -11z"/>
<path d="M3020 415 c-7 -9 -11 -18 -8 -20 7 -8 38 5 38 15 0 17 -18 19 -30 5z"/>
<path d="M2975 390 c3 -5 8 -10 11 -10 2 0 4 5 4 10 0 6 -5 10 -11 10 -5 0 -7
-4 -4 -10z"/>
<path d="M3690 370 c0 -5 5 -10 10 -10 6 0 10 5 10 10 0 6 -4 10 -10 10 -5 0
-10 -4 -10 -10z"/>
<path d="M2917 280 c-3 -13 0 -20 8 -20 21 0 27 16 11 29 -11 9 -15 7 -19 -9z"/>
<path d="M2955 265 c-4 -11 -11 -28 -16 -37 -13 -26 -11 -41 5 -35 8 3 16 1
19 -6 2 -6 8 2 13 18 8 22 7 37 -2 55 -12 23 -13 23 -19 5z"/>
<path d="M3040 256 c0 -14 5 -26 10 -26 6 0 10 9 10 19 0 11 -4 23 -10 26 -6
4 -10 -5 -10 -19z"/>
<path d="M3610 231 c0 -6 5 -13 10 -16 6 -3 10 1 10 9 0 9 -4 16 -10 16 -5 0
-10 -4 -10 -9z"/>
<path d="M2930 161 c0 -11 26 -22 34 -14 12 12 5 23 -14 23 -11 0 -20 -4 -20
-9z"/>
</g>
</svg>
